<svg xmlns="http://www.w3.org/2000/svg" viewBox="0 0 846.06 455.66"><defs><style>.a{isolation:isolate;}.b{fill:#f2f2f2;}.c{fill:#909090;}.d{fill:#a0a0a0;}.e{fill:#898989;}.f{fill:#ababab;}.g{fill:#7d7d7d;}.h{fill:#8f8f8f;}.i{fill:#838383;}.j{opacity:0.4;mix-blend-mode:multiply;}.k{fill:#979797;}.l{fill:#6f6f6f;}.m{fill:#7e7e7e;}.n{fill:#b5b5b5;}.o{fill:#cdcdcd;}.p{fill:#9d9d9d;}.q{fill:#a5a5a5;}.r{fill:#a8a8a8;}.s{fill:#9f9f9f;}.t{fill:#989898;}.u{fill:#8b8b8b;}.v{fill:#5a5a5a;}.w{fill:#6b6b6b;}.x{fill:#6c6c6c;}.y{fill:#797979;}.z{fill:#737373;}.aa{fill:#696969;}.ab{fill:#676767;}.ac{fill:#7c7c7c;}.ad{fill:#d8d8d8;}.ae{fill:#bababa;}.af{fill:#878787;}.ag{fill:#5f6466;}.ah{fill:#cecece;}.ai{fill:#e6e7e8;}.aj{fill:#dcddde;}.ak{fill:#fff;}.al{fill:#c1c1c1;}.am{fill:#4c4c4c;}.an{fill:#bbb;}.ao{fill:#535353;}.ap{fill:#a7a7a7;}.aq{fill:#c6c6c6;}.ar{fill:#bcbcbc;}.as{fill:#777;}.at{fill:#ededed;}.au{fill:#515151;}.av{fill:#e1e1e1;}.aw{fill:#dfdfdf;}.ax{fill:#b7b7b7;}.ay{fill:#3e3e3e;}.az{fill:#505050;}.ba{fill:#eee;}.bb{fill:#545454;}.bc{fill:#fefefe;}.bd{fill:#747474;}.be{fill:#6d6d6d;}.bf{fill:#e7e7e7;}.bg{fill:#7a7a7a;}.bh{fill:#707070;}.bi{fill:#2d2d2d;}.bj{fill:#c4c4c4;}.bk{fill:#f1f1f1;}.bl{fill:#e0e0e0;}.bm{fill:#f6f6f6;}.bn{fill:#818181;}.bo{fill:#b9b9b9;}.bp{fill:#444;}.bq{fill:#aaa;}.br{fill:#ebebeb;}.bs{font-size:72.49px;}.bs,.bt{font-family:RobotoCondensed-Bold, Roboto Condensed;font-weight:700;}.bt{font-size:44.73px;}.bu{mix-blend-mode:color;}.bv{fill:#00abff;}</style></defs><title>MoveOn_404ErrorPage_text</title><g class="a"><path class="b" d="M491.48,482.32c-21.64-.76-43.06-1.93-64-3.8a224.36,224.36,0,0,1-24-3.14c-2.78-.56-5.57-1.24-7.19-2.29-9.07-5.86,15.46-12.49,26.87-13.8,16.08-1.84,33.61-1.19,50.25-1.57,51.14-1.14,102.54-1.14,153.85,0,22.93.53,46.87,1.15,70.09,2.28,21.13,1,49.31,1.18,65.85,7.21.59.22,1.16.44,1.72.67,3.27,1.34,5.46,3.21,4.56,5-.76,1.52-3.6,2.73-6.57,3.74-19.8,6.73-44.84,7.66-70.41,8.07-33,.53-66.16-.61-99.06-.83C559.42,483.68,525.41,483.51,491.48,482.32Z" transform="translate(-7.8 -149.56)"/><rect class="c" x="423.92" y="116.78" width="45.92" height="22.01"/><rect class="d" x="432.12" y="104.17" width="29.51" height="12.61"/><polygon class="e" points="446.9 106.37 445.7 107.82 445.7 116.85 448.1 116.85 448.1 107.82 446.9 106.37"/><polygon class="e" points="451.64 106.37 450.44 107.82 450.44 116.85 452.84 116.85 452.84 107.82 451.64 106.37"/><polygon class="e" points="456.38 106.37 455.18 107.82 455.18 116.85 457.58 116.85 457.58 107.82 456.38 106.37"/><polygon class="e" points="437.42 106.37 436.22 107.82 436.21 116.85 438.62 116.85 438.62 107.82 437.42 106.37"/><polygon class="e" points="442.16 106.37 440.96 107.82 440.96 116.85 443.36 116.85 443.36 107.82 442.16 106.37"/><rect class="f" x="441.93" y="96.5" width="9.9" height="7.67"/><rect class="d" x="423.92" y="114.14" width="15.51" height="24.65"/><rect class="d" x="454.33" y="114.14" width="15.51" height="24.65"/><rect class="g" x="456.99" y="117.39" width="3.64" height="3.64"/><rect class="g" x="463.54" y="117.44" width="3.64" height="3.63"/><rect class="h" x="456.99" y="124.77" width="3.64" height="3.64"/><rect class="i" x="463.54" y="124.77" width="3.64" height="3.64"/><rect class="g" x="456.99" y="132.11" width="3.64" height="3.64"/><rect class="i" x="463.54" y="132.11" width="3.64" height="3.64"/><rect class="g" x="426.58" y="117.39" width="3.64" height="3.64"/><rect class="i" x="433.13" y="117.44" width="3.64" height="3.63"/><rect class="h" x="426.58" y="124.77" width="3.64" height="3.64"/><rect class="h" x="433.13" y="124.77" width="3.64" height="3.64"/><rect class="g" x="426.58" y="132.11" width="3.64" height="3.64"/><rect class="g" x="433.13" y="132.11" width="3.64" height="3.64"/><rect class="i" x="412.39" y="138.79" width="68.98" height="178.65"/><g class="j"><rect class="i" x="445.61" y="142.09" width="2.76" height="170.29"/><rect class="i" x="452.41" y="142.09" width="2.76" height="170.29"/><rect class="i" x="438.81" y="142.09" width="2.76" height="170.29"/></g><g class="j"><rect class="i" x="446.16" y="120.13" width="1.66" height="16.05"/><rect class="i" x="450.25" y="120.13" width="1.66" height="16.05"/><rect class="i" x="442.06" y="120.13" width="1.66" height="16.05"/></g><rect class="k" x="412.39" y="136.44" width="21.67" height="181"/><rect class="k" x="459.71" y="136.44" width="21.66" height="181"/><rect class="i" x="463.98" y="140.48" width="4.68" height="4.68"/><rect class="l" x="472.41" y="140.53" width="4.68" height="4.68"/><rect class="g" x="463.98" y="149.99" width="4.68" height="4.68"/><rect class="l" x="472.41" y="149.99" width="4.68" height="4.68"/><rect class="l" x="463.98" y="159.44" width="4.68" height="4.69"/><rect class="g" x="472.41" y="159.44" width="4.68" height="4.69"/><rect class="l" x="463.98" y="168.89" width="4.68" height="4.68"/><rect class="l" x="472.41" y="168.89" width="4.68" height="4.68"/><rect class="i" x="463.98" y="178.33" width="4.68" height="4.68"/><rect class="i" x="472.41" y="178.33" width="4.68" height="4.68"/><rect class="g" x="463.98" y="187.78" width="4.68" height="4.68"/><rect class="g" x="472.41" y="187.78" width="4.68" height="4.68"/><rect class="l" x="463.98" y="197.27" width="4.68" height="4.68"/><rect class="g" x="472.41" y="197.27" width="4.68" height="4.68"/><rect class="l" x="463.98" y="206.72" width="4.68" height="4.69"/><rect class="l" x="472.41" y="206.72" width="4.68" height="4.69"/><rect class="l" x="463.98" y="216.17" width="4.68" height="4.69"/><rect class="g" x="472.41" y="216.17" width="4.68" height="4.69"/><rect class="l" x="463.98" y="225.61" width="4.68" height="4.68"/><rect class="l" x="472.41" y="225.61" width="4.68" height="4.68"/><rect class="g" x="463.98" y="235.06" width="4.68" height="4.69"/><rect class="l" x="472.41" y="235.06" width="4.68" height="4.69"/><rect class="g" x="463.98" y="244.51" width="4.68" height="4.69"/><rect class="l" x="472.41" y="244.51" width="4.68" height="4.69"/><rect class="l" x="463.98" y="254" width="4.68" height="4.68"/><rect class="l" x="472.41" y="254" width="4.68" height="4.68"/><rect class="g" x="463.98" y="263.45" width="4.68" height="4.68"/><rect class="g" x="472.41" y="263.45" width="4.68" height="4.68"/><rect class="l" x="463.98" y="272.9" width="4.68" height="4.68"/><rect class="l" x="472.41" y="272.9" width="4.68" height="4.68"/><rect class="l" x="463.98" y="282.34" width="4.68" height="4.68"/><rect class="l" x="472.41" y="282.34" width="4.68" height="4.68"/><rect class="l" x="463.98" y="291.79" width="4.68" height="4.68"/><rect class="l" x="472.41" y="291.79" width="4.68" height="4.68"/><rect class="l" x="463.98" y="301.23" width="4.68" height="4.68"/><rect class="l" x="472.41" y="301.23" width="4.68" height="4.68"/><rect class="l" x="463.98" y="310.73" width="4.68" height="4.68"/><rect class="l" x="472.41" y="310.73" width="4.68" height="4.68"/><rect class="m" x="416.67" y="140.48" width="4.68" height="4.68"/><rect class="l" x="425.1" y="140.53" width="4.68" height="4.68"/><rect class="m" x="416.67" y="149.99" width="4.68" height="4.68"/><rect class="m" x="425.1" y="149.99" width="4.68" height="4.68"/><rect class="l" x="416.67" y="159.44" width="4.68" height="4.69"/><rect class="l" x="425.1" y="159.44" width="4.68" height="4.69"/><rect class="l" x="416.67" y="168.89" width="4.68" height="4.68"/><rect class="i" x="425.1" y="168.89" width="4.68" height="4.68"/><rect class="i" x="416.67" y="178.33" width="4.68" height="4.68"/><rect class="i" x="425.1" y="178.33" width="4.68" height="4.68"/><rect class="l" x="416.67" y="187.78" width="4.68" height="4.68"/><rect class="i" x="425.1" y="187.78" width="4.68" height="4.68"/><rect class="i" x="416.67" y="197.27" width="4.68" height="4.68"/><rect class="l" x="425.1" y="197.27" width="4.68" height="4.68"/><rect class="l" x="416.67" y="206.72" width="4.68" height="4.69"/><rect class="l" x="425.1" y="206.72" width="4.68" height="4.69"/><rect class="g" x="416.67" y="216.17" width="4.68" height="4.69"/><rect class="l" x="425.1" y="216.17" width="4.68" height="4.69"/><rect class="l" x="416.67" y="225.61" width="4.68" height="4.68"/><rect class="g" x="425.1" y="225.61" width="4.68" height="4.68"/><rect class="l" x="416.67" y="235.06" width="4.68" height="4.69"/><rect class="l" x="425.1" y="235.06" width="4.68" height="4.69"/><rect class="l" x="416.67" y="244.51" width="4.68" height="4.69"/><rect class="l" x="425.1" y="244.51" width="4.68" height="4.69"/><rect class="g" x="416.67" y="254" width="4.68" height="4.68"/><rect class="l" x="425.1" y="254" width="4.68" height="4.68"/><rect class="g" x="416.67" y="263.45" width="4.68" height="4.68"/><rect class="l" x="425.1" y="263.45" width="4.68" height="4.68"/><rect class="l" x="416.67" y="272.9" width="4.68" height="4.68"/><rect class="l" x="425.1" y="272.9" width="4.68" height="4.68"/><rect class="l" x="416.67" y="282.34" width="4.68" height="4.68"/><rect class="l" x="425.1" y="282.34" width="4.68" height="4.68"/><rect class="l" x="416.67" y="291.79" width="4.68" height="4.68"/><rect class="l" x="425.1" y="291.79" width="4.68" height="4.68"/><rect class="l" x="416.67" y="301.23" width="4.68" height="4.68"/><rect class="l" x="425.1" y="301.23" width="4.68" height="4.68"/><rect class="l" x="416.67" y="310.73" width="4.68" height="4.68"/><rect class="l" x="425.1" y="310.73" width="4.68" height="4.68"/><path class="n" d="M551.92,248.85V464a6.36,6.36,0,0,0,.79,3h46.56a6.36,6.36,0,0,0,.79-3V248.85Z" transform="translate(-7.8 -149.56)"/><path class="o" d="M575.06,149.59l-1,0v11.78h2.07V149.56Z" transform="translate(-7.8 -149.56)"/><rect class="n" x="557.94" y="11.68" width="20.5" height="34.88"/><rect class="p" x="562.4" y="14.82" width="4.14" height="4.13"/><rect class="p" x="569.85" y="14.86" width="4.13" height="4.14"/><rect class="p" x="562.4" y="23.21" width="4.14" height="4.14"/><rect class="p" x="569.85" y="23.21" width="4.13" height="4.14"/><rect class="p" x="562.4" y="31.56" width="4.14" height="4.14"/><rect class="p" x="569.85" y="31.56" width="4.13" height="4.14"/><rect class="p" x="562.4" y="39.91" width="4.14" height="4.14"/><rect class="p" x="569.85" y="39.91" width="4.13" height="4.14"/><rect class="n" x="551.42" y="46.3" width="33.55" height="53.11"/><rect class="p" x="556.87" y="50.06" width="5.39" height="5.38"/><rect class="p" x="565.5" y="50.06" width="5.39" height="5.38"/><rect class="p" x="574.12" y="50.06" width="5.38" height="5.38"/><rect class="p" x="556.87" y="59.85" width="5.39" height="5.38"/><rect class="p" x="565.5" y="59.85" width="5.39" height="5.38"/><rect class="p" x="574.12" y="59.85" width="5.38" height="5.38"/><rect class="p" x="556.87" y="69.63" width="5.39" height="5.39"/><rect class="p" x="565.5" y="69.75" width="5.39" height="5.39"/><rect class="p" x="574.12" y="69.63" width="5.38" height="5.39"/><rect class="p" x="556.87" y="79.42" width="5.39" height="5.38"/><rect class="p" x="565.5" y="79.42" width="5.39" height="5.38"/><rect class="p" x="574.12" y="79.42" width="5.38" height="5.38"/><rect class="p" x="556.87" y="89.2" width="5.39" height="5.38"/><rect class="p" x="565.5" y="89.2" width="5.39" height="5.38"/><rect class="p" x="574.12" y="89.2" width="5.38" height="5.38"/><rect class="p" x="552.34" y="105.62" width="6.87" height="6.86"/><rect class="p" x="564.71" y="105.62" width="6.86" height="6.86"/><rect class="p" x="577.08" y="105.63" width="6.86" height="6.86"/><rect class="p" x="552.34" y="118.05" width="6.87" height="6.87"/><rect class="p" x="564.71" y="118.11" width="6.86" height="6.87"/><rect class="p" x="577.08" y="118.11" width="6.86" height="6.87"/><rect class="p" x="552.34" y="130.59" width="6.87" height="6.86"/><rect class="p" x="564.71" y="130.59" width="6.86" height="6.86"/><rect class="p" x="577.08" y="130.59" width="6.86" height="6.86"/><rect class="p" x="552.34" y="143.07" width="6.87" height="6.87"/><rect class="p" x="564.71" y="143.07" width="6.86" height="6.87"/><rect class="p" x="577.08" y="143.17" width="6.86" height="6.87"/><rect class="p" x="552.34" y="155.56" width="6.87" height="6.86"/><rect class="p" x="564.71" y="155.56" width="6.86" height="6.86"/><rect class="p" x="577.08" y="155.56" width="6.86" height="6.86"/><rect class="p" x="552.34" y="168.04" width="6.87" height="6.87"/><rect class="p" x="564.71" y="168.04" width="6.86" height="6.87"/><rect class="p" x="577.08" y="168.04" width="6.86" height="6.87"/><rect class="p" x="552.34" y="180.53" width="6.87" height="6.86"/><rect class="p" x="564.71" y="180.53" width="6.86" height="6.86"/><rect class="p" x="577.08" y="180.53" width="6.86" height="6.86"/><rect class="p" x="552.34" y="193.15" width="6.87" height="6.87"/><rect class="p" x="564.71" y="193.01" width="6.86" height="6.87"/><rect class="p" x="577.08" y="193.01" width="6.86" height="6.87"/><rect class="p" x="552.34" y="205.49" width="6.87" height="6.86"/><rect class="p" x="564.71" y="205.49" width="6.86" height="6.86"/><rect class="p" x="577.08" y="205.49" width="6.86" height="6.86"/><rect class="p" x="552.34" y="217.98" width="6.87" height="6.87"/><rect class="p" x="564.71" y="217.98" width="6.86" height="6.87"/><rect class="p" x="577.08" y="218" width="6.86" height="6.87"/><rect class="p" x="552.34" y="230.46" width="6.87" height="6.86"/><rect class="p" x="564.71" y="230.46" width="6.86" height="6.86"/><rect class="p" x="577.08" y="230.46" width="6.86" height="6.86"/><rect class="p" x="552.34" y="242.94" width="6.87" height="6.87"/><rect class="p" x="564.71" y="242.94" width="6.86" height="6.87"/><rect class="p" x="577.08" y="242.94" width="6.86" height="6.87"/><rect class="p" x="552.34" y="255.43" width="6.87" height="6.86"/><rect class="p" x="564.71" y="255.43" width="6.86" height="6.86"/><rect class="p" x="577.08" y="255.43" width="6.86" height="6.86"/><rect class="p" x="552.34" y="267.92" width="6.87" height="6.87"/><rect class="p" x="564.71" y="267.92" width="6.86" height="6.87"/><rect class="p" x="577.08" y="267.92" width="6.86" height="6.87"/><rect class="p" x="552.34" y="280.4" width="6.87" height="6.86"/><rect class="p" x="564.71" y="280.4" width="6.86" height="6.86"/><rect class="p" x="577.08" y="280.4" width="6.86" height="6.86"/><path class="n" d="M637.78,164.85H636a7.62,7.62,0,0,0-7.62,7.62v2.73a7.62,7.62,0,0,1,7.62-7.62h1.79a7.62,7.62,0,0,1,7.62,7.62v-2.73A7.62,7.62,0,0,0,637.78,164.85Z" transform="translate(-7.8 -149.56)"/><path class="q" d="M635.26,181.82h3.25a13.79,13.79,0,0,1,6.89,1.89V175.2a7.62,7.62,0,0,0-7.62-7.62H636a7.62,7.62,0,0,0-7.62,7.62v8.51A13.79,13.79,0,0,1,635.26,181.82Z" transform="translate(-7.8 -149.56)"/><path class="r" d="M638.51,181.82h-3.25a13.87,13.87,0,0,0-13.87,13.87v3.68a13.87,13.87,0,0,1,13.87-13.87h3.25a13.87,13.87,0,0,1,13.88,13.87v-3.68A13.87,13.87,0,0,0,638.51,181.82Z" transform="translate(-7.8 -149.56)"/><path class="s" d="M652.39,212v-12.6a13.87,13.87,0,0,0-13.88-13.87h-3.25a13.87,13.87,0,0,0-13.87,13.87V212Z" transform="translate(-7.8 -149.56)"/><path class="t" d="M652.39,212v-12.6a13.87,13.87,0,0,0-13.88-13.87h-3.25a13.87,13.87,0,0,0-13.87,13.87V212Z" transform="translate(-7.8 -149.56)"/><rect class="u" x="605.05" y="64.13" width="48.08" height="36.64"/><rect class="u" x="594.17" y="150.07" width="69.84" height="56.13"/><rect class="u" x="586.89" y="206.2" width="84.4" height="111.24"/><rect class="v" x="586.89" y="297.57" width="84.4" height="19.87"/><polygon class="r" points="594.17 204.49 664.01 204.49 671.29 206.2 586.89 206.2 594.17 204.49"/><rect class="u" x="599.58" y="100.77" width="59" height="49.3"/><polygon class="r" points="599.57 148.36 658.61 148.36 664.01 150.07 594.17 150.07 599.57 148.36"/><polygon class="r" points="604.98 99.06 653.19 99.06 658.59 100.77 599.58 100.77 604.98 99.06"/><polygon class="r" points="610.44 62.41 647.73 62.41 653.12 64.13 605.04 64.13 610.44 62.41"/><rect class="v" x="617.66" y="71.79" width="3.03" height="20.06"/><rect class="v" x="627.58" y="71.79" width="3.03" height="20.06"/><rect class="v" x="637.49" y="71.79" width="3.03" height="20.06"/><rect class="v" x="617.66" y="108.77" width="3.03" height="31.51"/><rect class="v" x="627.58" y="108.77" width="3.03" height="31.51"/><rect class="v" x="637.49" y="108.77" width="3.03" height="31.51"/><rect class="v" x="617.66" y="158.9" width="3.03" height="36.53"/><rect class="v" x="627.58" y="158.9" width="3.03" height="36.53"/><rect class="v" x="637.49" y="158.9" width="3.03" height="36.53"/><rect class="v" x="617.66" y="215.83" width="3.03" height="74.88"/><rect class="v" x="627.58" y="215.83" width="3.03" height="74.88"/><rect class="v" x="637.49" y="215.83" width="3.03" height="74.88"/><rect class="v" x="606.92" y="108.26" width="4.56" height="6.86"/><rect class="w" x="606.92" y="119.8" width="4.56" height="6.87"/><rect class="v" x="606.92" y="131.33" width="4.56" height="6.86"/><rect class="w" x="646.7" y="108.26" width="4.55" height="6.86"/><rect class="v" x="646.7" y="119.8" width="4.55" height="6.87"/><rect class="v" x="646.7" y="131.33" width="4.55" height="6.86"/><rect class="v" x="646.6" y="215.33" width="4.55" height="6.86"/><rect class="x" x="646.6" y="226.87" width="4.55" height="6.86"/><rect class="v" x="646.6" y="238.4" width="4.55" height="6.87"/><rect class="v" x="646.6" y="249.94" width="4.55" height="6.86"/><rect class="v" x="646.6" y="261.48" width="4.55" height="6.86"/><rect class="v" x="646.6" y="273.01" width="4.55" height="6.86"/><rect class="v" x="646.6" y="284.55" width="4.55" height="6.86"/><rect class="v" x="654.41" y="215.33" width="4.55" height="6.86"/><rect class="x" x="654.41" y="226.87" width="4.55" height="6.86"/><rect class="x" x="654.41" y="238.4" width="4.55" height="6.87"/><rect class="v" x="654.41" y="249.94" width="4.55" height="6.86"/><rect class="v" x="654.41" y="261.48" width="4.55" height="6.86"/><rect class="v" x="654.41" y="273.01" width="4.55" height="6.86"/><rect class="v" x="654.41" y="284.55" width="4.55" height="6.86"/><rect class="y" x="662.2" y="215.33" width="4.55" height="6.86"/><rect class="v" x="662.2" y="226.87" width="4.55" height="6.86"/><rect class="v" x="662.2" y="238.4" width="4.55" height="6.87"/><rect class="v" x="662.2" y="249.94" width="4.55" height="6.86"/><rect class="v" x="662.2" y="261.48" width="4.55" height="6.86"/><rect class="v" x="662.2" y="273.01" width="4.55" height="6.86"/><rect class="v" x="662.2" y="284.55" width="4.55" height="6.86"/><rect class="x" x="591.42" y="215.33" width="4.55" height="6.86"/><rect class="v" x="591.42" y="226.87" width="4.55" height="6.86"/><rect class="v" x="591.42" y="238.4" width="4.55" height="6.87"/><rect class="v" x="591.42" y="249.94" width="4.55" height="6.86"/><rect class="v" x="591.42" y="261.48" width="4.55" height="6.86"/><rect class="v" x="591.42" y="273.01" width="4.55" height="6.86"/><rect class="v" x="591.42" y="284.55" width="4.55" height="6.86"/><rect class="v" x="599.22" y="215.33" width="4.55" height="6.86"/><rect class="v" x="599.22" y="226.87" width="4.55" height="6.86"/><rect class="v" x="599.22" y="238.4" width="4.55" height="6.87"/><rect class="v" x="599.22" y="249.94" width="4.55" height="6.86"/><rect class="v" x="599.22" y="261.48" width="4.55" height="6.86"/><rect class="v" x="599.22" y="273.01" width="4.55" height="6.86"/><rect class="v" x="599.22" y="284.55" width="4.55" height="6.86"/><rect class="v" x="607.03" y="215.33" width="4.55" height="6.86"/><rect class="x" x="607.03" y="226.87" width="4.55" height="6.86"/><rect class="v" x="607.03" y="238.4" width="4.55" height="6.87"/><rect class="v" x="607.03" y="249.94" width="4.55" height="6.86"/><rect class="v" x="607.03" y="261.48" width="4.55" height="6.86"/><rect class="v" x="607.03" y="273.01" width="4.55" height="6.86"/><rect class="v" x="607.03" y="284.55" width="4.55" height="6.86"/><rect class="v" x="646.6" y="158.7" width="4.55" height="6.86"/><rect class="z" x="646.6" y="170.24" width="4.55" height="6.86"/><rect class="z" x="646.6" y="181.77" width="4.55" height="6.87"/><rect class="v" x="646.6" y="193.31" width="4.55" height="6.86"/><rect class="aa" x="654.41" y="158.7" width="4.55" height="6.86"/><rect class="v" x="654.41" y="170.24" width="4.55" height="6.86"/><rect class="v" x="654.41" y="181.77" width="4.55" height="6.87"/><rect class="v" x="654.41" y="193.31" width="4.55" height="6.86"/><rect class="ab" x="607.08" y="158.7" width="4.55" height="6.86"/><rect class="v" x="607.08" y="170.24" width="4.55" height="6.86"/><rect class="ac" x="607.08" y="181.77" width="4.55" height="6.87"/><rect class="v" x="607.08" y="193.31" width="4.55" height="6.86"/><rect class="v" x="599.22" y="158.7" width="4.55" height="6.86"/><rect class="ac" x="599.22" y="170.24" width="4.55" height="6.86"/><rect class="v" x="599.22" y="181.77" width="4.55" height="6.87"/><rect class="v" x="599.22" y="193.31" width="4.55" height="6.86"/><rect class="ad" x="474.98" y="150.52" width="60.99" height="36.64"/><rect class="ae" x="473.57" y="150.52" width="63.82" height="7.42"/><polygon class="f" points="522.78 124.96 535.97 150.52 474.98 150.52 488.18 124.96 522.78 124.96"/><rect class="ad" x="469.8" y="187.16" width="71.36" height="130.28"/><rect class="ae" x="531.01" y="201.12" width="4.68" height="4.68"/><rect class="ae" x="531.01" y="210.62" width="4.68" height="4.68"/><rect class="ae" x="531.01" y="220.06" width="4.68" height="4.68"/><rect class="ae" x="531.01" y="229.51" width="4.68" height="4.68"/><rect class="ae" x="475.26" y="201.12" width="4.68" height="4.68"/><rect class="ae" x="475.26" y="210.62" width="4.68" height="4.68"/><rect class="ae" x="475.26" y="220.06" width="4.68" height="4.68"/><rect class="ae" x="475.26" y="229.51" width="4.68" height="4.68"/><rect class="ae" x="468.1" y="187.16" width="74.76" height="8.16"/><path class="r" d="M497.74,326V315.56a3.64,3.64,0,0,0-7.28,0V326Z" transform="translate(-7.8 -149.56)"/><path class="r" d="M510.53,326V315.56a3.65,3.65,0,0,0-7.29,0V326Z" transform="translate(-7.8 -149.56)"/><path class="r" d="M523.31,326V315.56a3.64,3.64,0,0,0-7.28,0V326Z" transform="translate(-7.8 -149.56)"/><path class="r" d="M536.1,326V315.56a3.64,3.64,0,1,0-7.28,0V326Z" transform="translate(-7.8 -149.56)"/><path class="r" d="M509.32,300.08V291.9a5.24,5.24,0,0,0-10.48,0v8.18Z" transform="translate(-7.8 -149.56)"/><path class="ae" d="M504.08,288.54a3.36,3.36,0,0,1,3.35,3.36v6.3h-6.7v-6.3a3.36,3.36,0,0,1,3.35-3.36Zm0-1.88a5.23,5.23,0,0,0-5.24,5.24v8.18h10.48V291.9a5.24,5.24,0,0,0-5.24-5.24Z" transform="translate(-7.8 -149.56)"/><path class="r" d="M527.72,300.08V291.9a5.24,5.24,0,0,0-10.48,0v8.18Z" transform="translate(-7.8 -149.56)"/><path class="ae" d="M522.48,288.54a3.36,3.36,0,0,1,3.35,3.36v6.3h-6.7v-6.3a3.36,3.36,0,0,1,3.35-3.36Zm0-1.88a5.24,5.24,0,0,0-5.24,5.24v8.18h10.48V291.9a5.24,5.24,0,0,0-5.24-5.24Z" transform="translate(-7.8 -149.56)"/><path class="r" d="M504.27,393.65v-38a5,5,0,1,0-9.92,0v38Z" transform="translate(-7.8 -149.56)"/><path class="r" d="M518.24,393.65v-38a5,5,0,0,0-9.92,0v38Z" transform="translate(-7.8 -149.56)"/><path class="r" d="M532.21,393.65v-38a5,5,0,0,0-9.92,0v38Z" transform="translate(-7.8 -149.56)"/><path class="ae" d="M503.46,459.38V414.55a5.4,5.4,0,1,0-10.8,0v44.83Z" transform="translate(-7.8 -149.56)"/><path class="ae" d="M518.68,459.38V414.55a5.4,5.4,0,1,0-10.8,0v44.83Z" transform="translate(-7.8 -149.56)"/><path class="ae" d="M533.9,459.38V414.55a5.41,5.41,0,1,0-10.81,0v44.83Z" transform="translate(-7.8 -149.56)"/><path class="r" d="M516,334.72h7.28v-4.06H516Zm-25.57,0h7.28v-4.06h-7.28Zm38.36-4.06v4.06h7.28v-4.06Zm-25.58,4.06h7.29v-4.06h-7.29Z" transform="translate(-7.8 -149.56)"/><rect class="af" x="464.86" y="223.83" width="165.21" height="93.87"/><rect class="d" x="464.86" y="263" width="165.21" height="3.32"/><rect class="ag" x="464.86" y="266.32" width="165.21" height="1.47"/><rect class="d" x="464.86" y="306.55" width="165.21" height="11.15"/><polygon class="ah" points="547.48 195.19 479.42 220.07 615.52 220.07 547.48 195.19"/><path class="ai" d="M645.82,373.39l-90.54-33.08-90.54,33.08Zm-22.5-3.76H487.22l68.06-24.88Z" transform="translate(-7.8 -149.56)"/><polygon class="ag" points="587.54 230.78 587.54 223.83 586.07 223.83 574.66 223.83 573.19 223.83 573.19 230.78 574.66 230.78 573.88 306.47 572.4 306.47 572.4 317.7 573.88 317.7 586.85 317.7 588.32 317.7 588.32 306.47 586.85 306.47 586.07 230.78 587.54 230.78"/><polygon class="aj" points="576.63 223.83 575.84 317.7 588.82 317.7 588.03 223.83 576.63 223.83"/><rect class="ak" x="574.37" y="306.47" width="15.92" height="11.24"/><rect class="ak" x="575.16" y="223.83" width="14.35" height="6.95"/><polygon class="ag" points="507.4 230.78 507.4 223.83 508.88 223.83 520.28 223.83 521.75 223.83 521.75 230.78 520.28 230.78 521.07 306.47 522.54 306.47 522.54 317.7 521.07 317.7 508.09 317.7 506.62 317.7 506.62 306.47 508.09 306.47 508.88 230.78 507.4 230.78"/><polygon class="aj" points="518.31 223.83 519.1 317.7 506.12 317.7 506.91 223.83 518.31 223.83"/><rect class="ak" x="504.65" y="306.47" width="15.92" height="11.24"/><rect class="ak" x="505.43" y="223.83" width="14.35" height="6.95"/><polygon class="ag" points="633.67 230.78 633.67 223.83 632.2 223.83 620.8 223.83 619.33 223.83 619.33 230.78 620.8 230.78 620.01 306.47 618.53 306.47 618.53 317.7 620.01 317.7 632.99 317.7 634.46 317.7 634.46 306.47 632.99 306.47 632.2 230.78 633.67 230.78"/><polygon class="aj" points="622.77 223.83 621.98 317.7 634.96 317.7 634.17 223.83 622.77 223.83"/><rect class="ak" x="620.51" y="306.47" width="15.91" height="11.24"/><rect class="ak" x="621.3" y="223.83" width="14.34" height="6.95"/><polygon class="ag" points="461.27 230.78 461.27 223.83 462.74 223.83 474.14 223.83 475.62 223.83 475.62 230.78 474.14 230.78 474.93 306.47 476.4 306.47 476.4 317.7 474.93 317.7 461.95 317.7 460.48 317.7 460.48 306.47 461.95 306.47 462.74 230.78 461.27 230.78"/><polygon class="aj" points="472.17 223.83 472.96 317.7 459.98 317.7 460.77 223.83 472.17 223.83"/><rect class="ak" x="458.51" y="306.47" width="15.92" height="11.24"/><rect class="ak" x="459.3" y="223.83" width="14.34" height="6.95"/><rect class="al" x="527.08" y="313.68" width="40.79" height="4.02"/><rect class="al" x="529.41" y="308.7" width="36.12" height="4.01"/><rect class="al" x="532.63" y="303.71" width="29.69" height="4.01"/><path class="ak" d="M555.27,420.32a13.12,13.12,0,0,0-13.11,13.11v19.84h26.22V433.43A13.12,13.12,0,0,0,555.27,420.32Z" transform="translate(-7.8 -149.56)"/><path class="al" d="M566.26,453.27V433.15a11,11,0,0,0-22,0v20.12Z" transform="translate(-7.8 -149.56)"/><path class="d" d="M555.27,422.85a10.31,10.31,0,0,1,10.31,10.3V452.6H545V433.15a10.32,10.32,0,0,1,10.31-10.3Zm0-.68a11,11,0,0,0-11,11v20.12h22V433.15a11,11,0,0,0-11-11Z" transform="translate(-7.8 -149.56)"/><path class="d" d="M555.09,422.22v31h.36v-31c-.07,0-.12-.05-.18-.05S555.15,422.22,555.09,422.22Z" transform="translate(-7.8 -149.56)"/><polygon class="am" points="497.82 297.88 490.12 297.88 490.12 274.07 497.82 274.06 497.82 297.88"/><rect class="am" x="482.42" y="274.07" width="7.7" height="23.81"/><path class="aj" d="M503.91,425.35v20.38h-4.73V425.35Zm1.71-1.73h-7.7v23.82h7.7V423.62Z" transform="translate(-7.8 -149.56)"/><path class="aj" d="M496.67,425.35v20.38h-4.73V425.35Zm1.25-1.72h-7.7v23.82h7.7V423.63Z" transform="translate(-7.8 -149.56)"/><polygon class="aj" points="484.14 289.18 484.14 290.05 488.87 290.05 488.87 289.17 484.14 289.18"/><rect class="aj" x="491.37" y="289.17" width="4.74" height="0.88"/><rect class="aj" x="484.14" y="281.94" width="4.73" height="0.88"/><rect class="aj" x="491.37" y="281.94" width="4.74" height="0.88"/><rect class="ag" x="481.32" y="299.28" width="17.61" height="1.21"/><rect class="ak" x="481.32" y="297.3" width="17.61" height="1.97"/><polygon class="am" points="497.82 256.35 490.12 256.36 490.12 232.54 497.82 232.53 497.82 256.35"/><rect class="am" x="482.42" y="232.54" width="7.7" height="23.8"/><path class="aj" d="M503.91,383.81v20.38h-4.73V383.81Zm1.71-1.72h-7.7v23.82h7.7V382.09Z" transform="translate(-7.8 -149.56)"/><path class="aj" d="M496.67,383.81v20.38h-4.73V383.81Zm1.25-1.71h-7.7v23.81h7.7V382.1Z" transform="translate(-7.8 -149.56)"/><rect class="aj" x="484.14" y="247.64" width="4.73" height="0.87"/><rect class="aj" x="491.37" y="247.64" width="4.74" height="0.87"/><rect class="aj" x="484.14" y="240.41" width="4.73" height="0.87"/><rect class="aj" x="491.37" y="240.41" width="4.74" height="0.87"/><rect class="ag" x="481.32" y="257.74" width="17.61" height="1.22"/><rect class="ak" x="481.32" y="255.77" width="17.61" height="1.97"/><polygon class="am" points="612.51 297.88 604.82 297.88 604.82 274.07 612.51 274.06 612.51 297.88"/><rect class="am" x="597.12" y="274.07" width="7.7" height="23.81"/><path class="aj" d="M618.61,425.35v20.38h-4.74V425.35Zm1.7-1.73h-7.69v23.82h7.69V423.62Z" transform="translate(-7.8 -149.56)"/><path class="aj" d="M611.37,425.35v20.38h-4.74V425.35Zm1.25-1.72h-7.7v23.82h7.7V423.63Z" transform="translate(-7.8 -149.56)"/><polygon class="aj" points="598.83 289.18 598.83 290.05 603.57 290.05 603.57 289.17 598.83 289.18"/><rect class="aj" x="606.07" y="289.17" width="4.74" height="0.88"/><rect class="aj" x="598.83" y="281.94" width="4.74" height="0.88"/><rect class="aj" x="606.07" y="281.94" width="4.74" height="0.88"/><rect class="ag" x="596.02" y="299.28" width="17.61" height="1.21"/><rect class="ak" x="596.02" y="297.3" width="17.61" height="1.97"/><polygon class="am" points="612.51 256.35 604.82 256.36 604.82 232.54 612.51 232.53 612.51 256.35"/><rect class="am" x="597.12" y="232.54" width="7.7" height="23.8"/><path class="aj" d="M618.61,383.81v20.38h-4.74V383.81Zm1.7-1.72h-7.69v23.82h7.69V382.09Z" transform="translate(-7.8 -149.56)"/><path class="aj" d="M611.37,383.81v20.38h-4.74V383.81Zm1.25-1.71h-7.7v23.81h7.7V382.1Z" transform="translate(-7.8 -149.56)"/><rect class="aj" x="598.83" y="247.64" width="4.74" height="0.87"/><rect class="aj" x="606.07" y="247.64" width="4.74" height="0.87"/><rect class="aj" x="598.83" y="240.41" width="4.74" height="0.87"/><rect class="aj" x="606.07" y="240.41" width="4.74" height="0.87"/><rect class="ag" x="596.02" y="257.74" width="17.61" height="1.22"/><rect class="ak" x="596.02" y="255.77" width="17.61" height="1.97"/><polygon class="am" points="555.17 256.35 547.47 256.36 547.47 232.54 555.17 232.53 555.17 256.35"/><rect class="am" x="539.77" y="232.54" width="7.7" height="23.8"/><path class="aj" d="M561.26,383.81v20.38h-4.74V383.81Zm1.71-1.72h-7.7v23.82H563V382.09Z" transform="translate(-7.8 -149.56)"/><path class="aj" d="M554,383.81v20.38h-4.74V383.81Zm1.25-1.71h-7.7v23.81h7.7V382.1Z" transform="translate(-7.8 -149.56)"/><rect class="aj" x="541.48" y="247.64" width="4.74" height="0.87"/><rect class="aj" x="548.72" y="247.64" width="4.74" height="0.87"/><rect class="aj" x="541.48" y="240.41" width="4.74" height="0.87"/><rect class="aj" x="548.72" y="240.41" width="4.74" height="0.87"/><rect class="ag" x="538.67" y="257.74" width="17.61" height="1.22"/><rect class="ak" x="538.67" y="255.77" width="17.61" height="1.97"/><path class="an" d="M344.71,467.25C361.38,458.59,383.59,454,408,454s46.61,4.62,63.28,13.28Z" transform="translate(-7.8 -149.56)"/><path class="u" d="M395.21,403a22.62,22.62,0,1,1-22.62-22.6A22.61,22.61,0,0,1,395.21,403Z" transform="translate(-7.8 -149.56)"/><polygon class="ao" points="349.64 258.67 350.45 257.59 357.51 262.88 357.51 255.48 351.29 249.27 352.24 248.31 357.51 253.58 357.51 247.44 358.86 247.44 358.86 263.89 363.44 267.31 363.44 247.72 357.79 242.09 358.75 241.12 363.44 245.81 363.44 240.11 366.13 240.11 366.13 250.22 373.23 243.13 374.17 244.09 366.13 252.13 366.13 261.25 377.63 249.76 378.58 250.7 370.12 259.18 378.24 262.73 377.71 263.96 369.1 260.2 366.13 263.16 366.13 310.25 363.44 310.25 363.44 269 349.64 258.67"/><path class="ah" d="M375.77,441.27A16.79,16.79,0,1,1,359,424.49,16.79,16.79,0,0,1,375.77,441.27Z" transform="translate(-7.8 -149.56)"/><polygon class="ao" points="350.01 313.26 351.57 313.26 351.57 300.81 354.77 297.61 360.31 297.61 360.31 296.58 355.81 296.57 359.99 292.39 359.26 291.64 357.13 293.79 357.13 289.91 356.09 289.91 356.09 294.8 356.12 294.8 351.57 299.34 351.57 290.77 355.6 286.75 354.86 286.01 351.57 289.3 351.57 285.43 350.01 285.43 350.01 291.54 344.9 286.43 344.16 287.16 347.34 290.33 343.7 290.33 343.7 291.36 348.37 291.37 348.37 291.36 350.01 293 350.01 303.81 347.51 301.31 347.54 301.31 347.54 294.68 346.5 294.68 346.5 300.29 342.6 296.39 341.87 297.13 350.01 305.27 350.01 313.26"/><path class="ap" d="M446,423.7a18.47,18.47,0,1,0,18.47-18.47A18.47,18.47,0,0,0,446,423.7Z" transform="translate(-7.8 -149.56)"/><polygon class="ao" points="458.09 316.61 456.14 316.61 456.14 285.5 452.15 281.51 445.23 281.51 445.23 280.21 450.85 280.2 445.62 274.99 446.54 274.06 449.2 276.72 449.2 271.88 450.5 271.88 450.5 277.99 450.46 277.99 456.14 283.67 456.14 272.96 451.12 267.94 452.04 267.02 456.14 271.12 456.14 266.29 458.09 266.29 458.09 273.92 464.48 267.53 465.4 268.45 461.44 272.41 465.97 272.41 465.97 273.71 460.14 273.71 460.14 273.71 458.09 275.75 458.09 289.25 461.22 286.12 461.18 286.12 461.18 277.85 462.48 277.85 462.48 284.86 467.36 279.99 468.27 280.91 458.09 291.08 458.09 316.61"/><circle class="u" cx="441.66" cy="295.82" r="14.24"/><polygon class="ao" points="431.09 301.15 431.09 299.85 435.35 299.85 431.71 296.2 432.63 295.29 440.81 303.45 440.81 293.97 435.63 288.79 436.55 287.87 440.81 292.12 440.81 286.08 442.46 286.08 442.46 298.69 445.45 295.72 445.4 295.72 445.4 287.42 446.71 287.42 446.71 294.46 450.06 291.11 450.97 292.04 442.46 300.54 442.46 306.14 447.88 300.73 448.79 301.66 442.46 307.98 442.46 312.35 440.81 312.35 440.81 305.3 436.65 301.15 431.09 301.15"/><rect class="aq" x="376.01" y="275.28" width="2.46" height="25.82"/><rect class="aq" x="411.48" y="275.28" width="2.46" height="25.82"/><rect class="ar" x="369.55" y="297.68" width="50.84" height="3.43"/><rect class="ar" x="372.34" y="286.79" width="45.25" height="3.43"/><rect class="ar" x="372.34" y="291.76" width="45.25" height="3.43"/><rect class="ar" x="372.34" y="281.83" width="45.25" height="3.43"/><rect class="ar" x="372.34" y="276.86" width="45.25" height="3.43"/><rect class="as" x="376.01" y="301.1" width="2.46" height="12.02"/><rect class="as" x="411.48" y="301.1" width="2.46" height="12.02"/><path class="an" d="M637.71,467.25C654.38,458.59,676.59,454,701,454s46.61,4.62,63.28,13.28Z" transform="translate(-7.8 -149.56)"/><path class="u" d="M688.21,403a22.62,22.62,0,1,1-22.62-22.6A22.61,22.61,0,0,1,688.21,403Z" transform="translate(-7.8 -149.56)"/><polygon class="ao" points="642.64 258.67 643.45 257.59 650.51 262.88 650.51 255.48 644.29 249.27 645.24 248.31 650.51 253.58 650.51 247.44 651.86 247.44 651.86 263.89 656.43 267.31 656.43 247.72 650.79 242.09 651.75 241.12 656.43 245.81 656.43 240.11 659.13 240.11 659.13 250.22 666.23 243.13 667.17 244.09 659.13 252.13 659.13 261.25 670.63 249.76 671.58 250.7 663.12 259.18 671.24 262.73 670.71 263.96 662.1 260.2 659.13 263.16 659.13 310.25 656.43 310.25 656.43 269 642.64 258.67"/><path class="ah" d="M668.77,441.27A16.79,16.79,0,1,1,652,424.49,16.79,16.79,0,0,1,668.77,441.27Z" transform="translate(-7.8 -149.56)"/><polygon class="ao" points="643.01 313.26 644.57 313.26 644.57 300.81 647.77 297.61 653.31 297.61 653.31 296.58 648.81 296.57 652.99 292.39 652.26 291.64 650.13 293.79 650.13 289.91 649.09 289.91 649.09 294.8 649.12 294.8 644.57 299.34 644.57 290.77 648.6 286.75 647.86 286.01 644.57 289.3 644.57 285.43 643.01 285.43 643.01 291.54 637.9 286.43 637.16 287.16 640.34 290.33 636.7 290.33 636.7 291.36 641.37 291.37 641.37 291.36 643.01 293 643.01 303.81 640.51 301.31 640.54 301.31 640.54 294.68 639.5 294.68 639.5 300.29 635.6 296.39 634.87 297.13 643.01 305.27 643.01 313.26"/><rect class="aq" x="669.01" y="275.28" width="2.46" height="25.82"/><rect class="aq" x="704.48" y="275.28" width="2.46" height="25.82"/><rect class="ar" x="662.55" y="297.68" width="50.84" height="3.43"/><rect class="ar" x="665.34" y="286.79" width="45.25" height="3.43"/><rect class="ar" x="665.34" y="291.76" width="45.25" height="3.43"/><rect class="ar" x="665.34" y="281.83" width="45.25" height="3.43"/><rect class="ar" x="665.34" y="276.86" width="45.25" height="3.43"/><rect class="as" x="669.01" y="301.1" width="2.46" height="12.02"/><rect class="as" x="704.48" y="301.1" width="2.46" height="12.02"/><path class="b" d="M723.11,535.13c-7.38-.41-14.68-1-21.83-2.07a48.72,48.72,0,0,1-8.19-1.72,6,6,0,0,1-2.45-1.26c-3.09-3.24,5.28-6.92,9.17-7.65,5.48-1,11.46-.68,17.13-.9,17.44-.66,35-.69,52.47-.06,7.82.28,16,.61,23.9,1.22,7.2.55,16.81.63,22.44,3.95.21.12.4.25.59.37,1.12.74,1.86,1.78,1.55,2.76a4.44,4.44,0,0,1-2.24,2.07c-6.75,3.74-15.29,4.27-24,4.51-11.24.31-22.56-.3-33.78-.4C746.28,535.84,734.68,535.77,723.11,535.13Z" transform="translate(-7.8 -149.56)"/><path class="aa" d="M799.72,459.68a11.28,11.28,0,0,0,4.93-7.44s-7,3.15-7.61,2.93C797,455.17,797.56,458.31,799.72,459.68Z" transform="translate(-7.8 -149.56)"/><path class="at" d="M799.3,486.28c-1.45,1-2.18,1.5-3.67,2.45,3,4.44,6.19,8.19,10.88,10.81.71-1,1-1.44,1.72-2.43A35.4,35.4,0,0,1,799.3,486.28Z" transform="translate(-7.8 -149.56)"/><path class="au" d="M806.51,499.54a24.27,24.27,0,0,0,4.84,2.16,12,12,0,0,1-1.18-1.84l2.33-.32a22.6,22.6,0,0,1-4.27-2.43C807.56,498.1,807.22,498.58,806.51,499.54Z" transform="translate(-7.8 -149.56)"/><path class="av" d="M781.7,491.37c-.74-1.61-1.1-2.41-1.77-4-4.88,2.12-9.15,4.65-12.56,8.8.82.87,1.24,1.29,2.09,2.13A35.4,35.4,0,0,1,781.7,491.37Z" transform="translate(-7.8 -149.56)"/><path class="au" d="M767.37,496.13a24.7,24.7,0,0,0-3,4.39,11.27,11.27,0,0,1,2-.83c0,1-.06,1.43-.09,2.34a22.48,22.48,0,0,1,3.13-3.77C768.61,497.42,768.19,497,767.37,496.13Z" transform="translate(-7.8 -149.56)"/><rect class="am" x="807.72" y="491.7" width="25.35" height="1.25" rx="0.16" ry="0.16" transform="translate(-142.22 404.05) rotate(-34.64)"/><rect class="aw" x="818.68" y="468.67" width="31" height="26.16" transform="translate(728.88 -626.16) rotate(54.18)"/><path class="av" d="M779.67,504.74c-1.85,0-2.77,0-4.62,0l.75,17.6c1.25,0,1.87,0,3.12,0Z" transform="translate(-7.8 -149.56)"/><path class="au" d="M775.8,522.34l.25,6c.49-.88.75-1.32,1.31-2.21.56.89.82,1.33,1.31,2.21l.25-6C777.67,522.37,777.05,522.37,775.8,522.34Z" transform="translate(-7.8 -149.56)"/><path class="av" d="M801.79,503.54c-1.85,0-2.77,0-4.62,0l.75,17.6c1.25,0,1.87,0,3.12,0Z" transform="translate(-7.8 -149.56)"/><path class="au" d="M797.92,521.14l.25,6c.49-.88.75-1.33,1.31-2.22.56.89.82,1.34,1.31,2.22l.25-6C799.79,521.17,799.17,521.17,797.92,521.14Z" transform="translate(-7.8 -149.56)"/><path class="av" d="M780.07,462.39a5.93,5.93,0,0,0-2.25-1.39c-1.64-.41-3.4.59-4.55,1.68-1.81,1.69-2.59,4.38-4.73,5.74-1.62,1,4.11,2.75,6.54,2.21a10.43,10.43,0,0,0,5.8-3.22C781.79,466.23,780.67,462.86,780.07,462.39Z" transform="translate(-7.8 -149.56)"/><path class="ax" d="M779.65,463.44a4.16,4.16,0,0,0-1.57-1,3.65,3.65,0,0,0-3.16,1.17c-1.26,1.17-1.8,3-3.29,4-1.13.71,2.86,1.91,4.55,1.53a7.21,7.21,0,0,0,4-2.24C780.84,466.1,780.06,463.76,779.65,463.44Z" transform="translate(-7.8 -149.56)"/><path class="av" d="M800,459a5.81,5.81,0,0,1,2.25-1.39c1.64-.42,3.4.59,4.55,1.67,1.81,1.7,2.59,4.39,4.73,5.75,1.62,1-4.11,2.75-6.54,2.2a10.31,10.31,0,0,1-5.8-3.22C798.32,462.81,799.44,459.44,800,459Z" transform="translate(-7.8 -149.56)"/><path class="ax" d="M800.46,460a4,4,0,0,1,1.57-1,3.67,3.67,0,0,1,3.16,1.16c1.26,1.18,1.8,3,3.29,4,1.13.72-2.86,1.91-4.55,1.54a7.21,7.21,0,0,1-4-2.24C799.27,462.69,800.05,460.35,800.46,460Z" transform="translate(-7.8 -149.56)"/><path class="av" d="M775.14,511.33a2.15,2.15,0,0,1-.14-.26,7.12,7.12,0,0,1-.28-1.66q-.5-3.33-.7-6.69c-.4-6.49-.11-13.24,2-19.47a21.11,21.11,0,0,1,8-11.09c3.59-2.39,8.25-3.84,12.09-1.14,3.22,2.27,4.8,6.2,5.69,9.74a17.11,17.11,0,0,1,.39,4.94,175.92,175.92,0,0,0,0,21.54c.37,4.48-.52,6.77-5.45,6.58-4.38-.18-8.8-.38-13.19-.32C780.77,513.54,776.86,514.09,775.14,511.33Z" transform="translate(-7.8 -149.56)"/><path class="av" d="M804.76,463.17c1.44,6.46.62,17.1-5.42,20.05-5.88,2.87-15-4-18.77-8.88-5.43-7.11-1.51-15.87,5.72-19.39C793.78,451.29,802.79,454.38,804.76,463.17Z" transform="translate(-7.8 -149.56)"/><path class="ax" d="M795,473a20.82,20.82,0,0,0-8.33,7.17c4.1,2.91,9,4.87,12.64,3.09,4.07-2,5.77-7.48,6-12.82A21.28,21.28,0,0,0,795,473Z" transform="translate(-7.8 -149.56)"/><path class="ay" d="M790.61,479.05a2.93,2.93,0,0,0,2.88,2.88.18.18,0,0,0,0-.35,2.56,2.56,0,0,1-2.52-2.53.18.18,0,0,0-.36,0Z" transform="translate(-7.8 -149.56)"/><path class="aa" d="M780.49,462.91a11.24,11.24,0,0,1-4.93-7.43s7,3.14,7.61,2.92C783.17,458.4,782.65,461.54,780.49,462.91Z" transform="translate(-7.8 -149.56)"/><path class="ak" d="M792.59,469.55h0Z" transform="translate(-7.8 -149.56)"/><path class="az" d="M793.44,470.72a.92.92,0,1,1-.52-1.19A.91.91,0,0,1,793.44,470.72Z" transform="translate(-7.8 -149.56)"/><path class="ba" d="M792.39,470a.27.27,0,0,1-.34.14.25.25,0,0,1-.14-.33.26.26,0,0,1,.33-.15A.27.27,0,0,1,792.39,470Z" transform="translate(-7.8 -149.56)"/><path class="az" d="M803.09,468.44a.92.92,0,1,1-1.71-.67.91.91,0,0,1,1.19-.52A.93.93,0,0,1,803.09,468.44Z" transform="translate(-7.8 -149.56)"/><path class="ba" d="M802,467.74a.25.25,0,0,1-.33.14.26.26,0,0,1-.15-.33.27.27,0,0,1,.34-.15A.26.26,0,0,1,802,467.74Z" transform="translate(-7.8 -149.56)"/><ellipse class="ax" cx="784.82" cy="355.83" rx="7.45" ry="5.97"/><path class="bb" d="M786.93,454.65a3,3,0,0,0,1.61,1.51,4.36,4.36,0,0,0,3.24.73c.53-.17,1-.56,1.57-.51.71.06,1.15.78,1.6,1.33a3.67,3.67,0,0,0,2.55,1.43,2.46,2.46,0,0,0,2.42-1.45c.2-.5.24-1.15.72-1.39l.06,0A13.18,13.18,0,0,0,786.93,454.65Z" transform="translate(-7.8 -149.56)"/><path class="bb" d="M783.26,484.41c-.77-.11-1.58.27-2.33,0a3.84,3.84,0,0,1-1.13-.71,6.3,6.3,0,0,0-3.38-1.23h-.12l-.27.74a48.34,48.34,0,0,0-2.12,17.24,2.54,2.54,0,0,0,.67-.06,5.23,5.23,0,0,0,2.8-1.35,2.54,2.54,0,0,0,.51-2.91,2,2,0,0,1-.34-.7c0-.44.38-.77.74-1a36.4,36.4,0,0,0,4.59-3.72,6.53,6.53,0,0,0,2.17-3.26C785.31,486.17,784.57,484.59,783.26,484.41Zm-1.55,23.27c-.5,0-1,.21-1.49.19a2.43,2.43,0,0,1-1.81-1.21c-.4-.64-.7-1.45-1.42-1.66a1.78,1.78,0,0,0-1,.05,4.71,4.71,0,0,0-1.69.88c.12,1.16.27,2.32.44,3.48a7.12,7.12,0,0,0,.28,1.66,2.15,2.15,0,0,0,.14.26c1.59,2.56,5.08,2.27,7.76,2.18a1.21,1.21,0,0,0,.07-.33,1.74,1.74,0,0,0-1.36-1.74,2,2,0,0,0,1.91-1.62A1.94,1.94,0,0,0,781.71,507.68ZM801,485.19a1.72,1.72,0,0,0-1.17.66,1.81,1.81,0,0,0-.2.5,2.58,2.58,0,0,0-.15.82.87.87,0,0,0,.36.72,1.82,1.82,0,0,0,1,.12c.33,0,.72.15.77.47s-.14.47-.1.7.31.38.55.46l.15-3.94c0-.23,0-.46,0-.69C801.8,485.06,801.4,485.11,801,485.19ZM799.1,495a4.79,4.79,0,0,0-1.44-.43l0-.12a2.64,2.64,0,0,0-1.94.34,2.24,2.24,0,0,0-.59.89,1.63,1.63,0,0,0-.17.74.65.65,0,0,0,.4.6,1,1,0,0,0,.45,0,3.31,3.31,0,0,1,1.76.28c.41.21.75.54,1.14.78a.69.69,0,0,0,.36.13c.26,0,.43-.27.55-.5a2.25,2.25,0,0,0,.37-2A1.82,1.82,0,0,0,799.1,495Zm-1.36-.83-.06.28h0Zm-12.41-24.3a2.74,2.74,0,0,1-1.28-2.37c0-.45.11-1-.21-1.3a1.33,1.33,0,0,0-.76-.28,5.21,5.21,0,0,0-3.06.2,4.1,4.1,0,0,0-1.87,2.66,12.08,12.08,0,0,0,2.42,5.58l.35.44a20.33,20.33,0,0,0-2.51,3.35,4.27,4.27,0,0,0,2.09.4c1.1-.07,2.31-.75,2.39-1.85a4.07,4.07,0,0,1,0-1c.15-.45.62-.7,1-.95a6.43,6.43,0,0,0,2.33-2.55,1.69,1.69,0,0,0,.14-1.55C786.18,470.25,785.71,470.09,785.33,469.85Z" transform="translate(-7.8 -149.56)"/><path class="ap" d="M790.66,504.06a.87.87,0,1,1-.87-.88A.87.87,0,0,1,790.66,504.06Z" transform="translate(-7.8 -149.56)"/><path class="ap" d="M796.89,504.06a.87.87,0,1,1-.87-.88A.87.87,0,0,1,796.89,504.06Z" transform="translate(-7.8 -149.56)"/><path class="ap" d="M796.89,507.53a.87.87,0,1,1-.87-.88A.87.87,0,0,1,796.89,507.53Z" transform="translate(-7.8 -149.56)"/><path class="ap" d="M790.66,507.53a.87.87,0,1,1-.87-.88A.87.87,0,0,1,790.66,507.53Z" transform="translate(-7.8 -149.56)"/><path class="bc" d="M787.92,456.55l.87.67c.18.14.36-.16.18-.3l-.88-.67c-.18-.14-.35.17-.17.3Z" transform="translate(-7.8 -149.56)"/><path class="bc" d="M789.16,455.92a.28.28,0,0,1,.2.21.18.18,0,0,0,.34-.09.68.68,0,0,0-.44-.46c-.22-.08-.31.26-.1.34Z" transform="translate(-7.8 -149.56)"/><path class="bc" d="M790.89,458.1l.44.34c.18.13.35-.17.17-.31l-.44-.33c-.18-.14-.35.17-.17.3Z" transform="translate(-7.8 -149.56)"/><path class="bc" d="M791.26,455.27a.78.78,0,0,0,.24.84c.18.14.43-.11.25-.25a.46.46,0,0,1-.16-.49.17.17,0,0,0-.33-.1Z" transform="translate(-7.8 -149.56)"/><path class="bc" d="M792.73,456.65l.42.45a.18.18,0,0,0,.25-.25l-.43-.45c-.15-.17-.4.08-.24.25Z" transform="translate(-7.8 -149.56)"/><path class="bc" d="M793.88,458.62v.44a.18.18,0,0,0,.35,0v-.44a.18.18,0,0,0-.35,0Z" transform="translate(-7.8 -149.56)"/><path class="bc" d="M791.74,460.34a.12.12,0,0,1,.15.09c.07.22.41.13.34-.09a.5.5,0,0,0-.49-.36c-.22,0-.23.36,0,.36Z" transform="translate(-7.8 -149.56)"/><path class="bc" d="M788.36,458.51l.37.53c.13.18.43,0,.3-.18l-.37-.53c-.13-.18-.43,0-.3.18Z" transform="translate(-7.8 -149.56)"/><path class="bc" d="M792.2,462.31l.44.33c.18.13.36-.17.18-.31l-.44-.33c-.18-.13-.36.17-.18.31Z" transform="translate(-7.8 -149.56)"/><path class="bc" d="M794.74,461.1l.12.44a.17.17,0,0,0,.33-.09l-.11-.45c-.05-.22-.39-.12-.34.1Z" transform="translate(-7.8 -149.56)"/><path class="bc" d="M795.86,457.9c.07.26.15.51.23.77a.18.18,0,0,0,.34-.09l-.24-.77a.17.17,0,1,0-.33.09Z" transform="translate(-7.8 -149.56)"/><path class="bc" d="M797,460.38v.67a.18.18,0,0,0,.35,0v-.67a.18.18,0,0,0-.35,0Z" transform="translate(-7.8 -149.56)"/><path class="bc" d="M795.64,454.87v.55a.18.18,0,0,0,.36,0v-.55a.18.18,0,0,0-.36,0Z" transform="translate(-7.8 -149.56)"/><path class="bc" d="M795.44,459.46a.87.87,0,0,0,.26.82c.17.15.42-.1.25-.25a.48.48,0,0,1-.17-.48c0-.22-.3-.32-.34-.09Z" transform="translate(-7.8 -149.56)"/><path class="bc" d="M797.74,459.51a1.2,1.2,0,0,0-.1.81c.05.22.39.13.34-.1a.81.81,0,0,1,.06-.53c.1-.21-.2-.38-.3-.18Z" transform="translate(-7.8 -149.56)"/><path class="bc" d="M796.18,463.85l.12.55c0,.22.38.13.34-.09l-.12-.55c0-.22-.39-.13-.34.09Z" transform="translate(-7.8 -149.56)"/><path class="bc" d="M795.09,464.24v.11a.18.18,0,0,0,.36,0v-.11a.18.18,0,0,0-.36,0Z" transform="translate(-7.8 -149.56)"/><path class="bc" d="M793.2,464.39l.33.22c.19.13.36-.17.17-.3l-.33-.22c-.18-.13-.36.18-.17.3Z" transform="translate(-7.8 -149.56)"/><path class="bc" d="M795.65,466.49l.11.33c.07.22.41.13.34-.09l-.11-.33c-.07-.21-.41-.12-.34.09Z" transform="translate(-7.8 -149.56)"/><path class="bc" d="M796.86,465.67v.23a.18.18,0,0,0,.35,0v-.23a.18.18,0,0,0-.35,0Z" transform="translate(-7.8 -149.56)"/><path class="bc" d="M798.7,461.43a.63.63,0,0,0-.28.76c.09.2.43.11.34-.1a.26.26,0,0,1,.12-.35c.2-.11,0-.41-.18-.31Z" transform="translate(-7.8 -149.56)"/><path class="bc" d="M779.62,477.25l-.34.43c-.14.17.1.42.25.25l.34-.43c.14-.18-.11-.43-.25-.25Z" transform="translate(-7.8 -149.56)"/><path class="bc" d="M779.31,479.29l-.11.33c-.07.21.27.31.34.09l.11-.33c.07-.21-.27-.31-.34-.09Z" transform="translate(-7.8 -149.56)"/><path class="bc" d="M781.12,477.71a2,2,0,0,0-.34.71.18.18,0,0,0,.34.09,1.78,1.78,0,0,1,.3-.62c.14-.18-.17-.36-.3-.18Z" transform="translate(-7.8 -149.56)"/><path class="bc" d="M778,479.8l-.24.54c-.09.21.22.39.31.18l.24-.54c.09-.21-.22-.39-.31-.18Z" transform="translate(-7.8 -149.56)"/><path class="bc" d="M781.75,479.18l-.12.77c0,.23.31.32.34.1l.12-.77c0-.23-.31-.32-.34-.1Z" transform="translate(-7.8 -149.56)"/><path class="bc" d="M782.64,478.13v.33a.18.18,0,0,0,.35,0v-.33a.18.18,0,0,0-.35,0Z" transform="translate(-7.8 -149.56)"/><path class="bc" d="M780.55,482.93l-.22.55c-.08.21.26.31.34.1l.22-.55c.08-.21-.26-.31-.34-.1Z" transform="translate(-7.8 -149.56)"/><path class="bc" d="M776.93,484.1a1.58,1.58,0,0,0-.12.91c0,.22.37.13.34-.09a1.16,1.16,0,0,1,.08-.64c.09-.21-.21-.39-.3-.18Z" transform="translate(-7.8 -149.56)"/><path class="bc" d="M778.25,484.66a1.55,1.55,0,0,0-.13.74c0,.23.38.23.35,0a1.14,1.14,0,0,1,.09-.57c.09-.2-.21-.38-.31-.17Z" transform="translate(-7.8 -149.56)"/><path class="bc" d="M775.91,488.16v.33a.18.18,0,0,0,.36,0v-.33a.18.18,0,0,0-.36,0Z" transform="translate(-7.8 -149.56)"/><path class="bc" d="M778.45,487.12l-.12.44a.18.18,0,0,0,.34.09l.12-.44a.18.18,0,0,0-.34-.09Z" transform="translate(-7.8 -149.56)"/><path class="bc" d="M780.87,485.85v1a.18.18,0,0,0,.36,0v-1a.18.18,0,0,0-.36,0Z" transform="translate(-7.8 -149.56)"/><path class="bc" d="M780.1,489.59v.66a.18.18,0,0,0,.36,0v-.66a.18.18,0,0,0-.36,0Z" transform="translate(-7.8 -149.56)"/><path class="bc" d="M776.58,491.14v.66a.18.18,0,0,0,.35,0v-.66a.18.18,0,0,0-.35,0Z" transform="translate(-7.8 -149.56)"/><path class="bc" d="M778.11,490.31a.24.24,0,0,1,0,.27c-.15.17.1.42.25.25a.61.61,0,0,0,.13-.62c-.07-.21-.41-.12-.34.1Z" transform="translate(-7.8 -149.56)"/><path class="bc" d="M775.25,493.34V494a.18.18,0,0,0,.36,0v-.66a.18.18,0,0,0-.36,0Z" transform="translate(-7.8 -149.56)"/><path class="bc" d="M775.56,496.59l.12.33c.07.22.41.13.33-.09l-.11-.33c-.07-.21-.41-.12-.34.09Z" transform="translate(-7.8 -149.56)"/><path class="bc" d="M778.24,493.47a1.17,1.17,0,0,0-.11.8c0,.22.39.13.34-.1a.76.76,0,0,1,.08-.53.18.18,0,0,0-.31-.17Z" transform="translate(-7.8 -149.56)"/><path class="bc" d="M780.43,492.24v.66a.18.18,0,0,0,.36,0v-.66a.18.18,0,0,0-.36,0Z" transform="translate(-7.8 -149.56)"/><path class="bc" d="M774.71,499.41a.83.83,0,0,0-.1.7.18.18,0,0,0,.34-.1.52.52,0,0,1,.06-.42c.12-.19-.18-.37-.3-.18Z" transform="translate(-7.8 -149.56)"/><path class="bc" d="M774.48,501.94v.22a.18.18,0,0,0,.35,0v-.22a.18.18,0,0,0-.35,0Z" transform="translate(-7.8 -149.56)"/><path class="bd" d="M761.16,470.69c.49.09,2.87-3.13,3.83-7.49s1.13-4.73,1.13-4.73-13.3,4.25-14,9.76Z" transform="translate(-7.8 -149.56)"/><path class="be" d="M739.39,509.06c.44-.92-.44-10.56-8.77-19.7,0,0-4.53-4.74-5-7.52,0-.15,0-.28-.17-.26-1.74,3.47-1.47,9-1.42,12.72.13,8.89,5.51,19.51,15.42,19.68Z" transform="translate(-7.8 -149.56)"/><path class="bf" d="M725.48,481.58c.14,0,.15.11.17.26.44,2.78,5,7.52,5,7.52a39.69,39.69,0,0,1,3,3.69,15.06,15.06,0,0,1-2.19-1.12,4.56,4.56,0,0,0-.15,3.48,6.17,6.17,0,0,1-3.54-2.92,13.41,13.41,0,0,0-.63,4.26,7.57,7.57,0,0,1-2.2-3.83c-.27.38-.55.75-.82,1.12C724,490.3,723.77,485,725.48,481.58Z" transform="translate(-7.8 -149.56)"/><path class="i" d="M751.65,469.29c.44-.29-.14-4.46-2.63-8.44s-2.63-4.38-2.63-4.38-6.86,13-3.36,17.65Z" transform="translate(-7.8 -149.56)"/><path class="bf" d="M750.07,469.3c.29-.2-.1-3-1.75-5.62a33,33,0,0,1-1.75-2.92s-4.57,8.63-2.24,11.75Z" transform="translate(-7.8 -149.56)"/><path class="bf" d="M761,470.27c.34,0,1.86-2.31,2.34-5.4s.58-3.35.58-3.35-9.1,3.55-9.37,7.43Z" transform="translate(-7.8 -149.56)"/><path class="as" d="M770.12,499.4c.79.52,1.65.91,2.42,1.46.4.29,1.06.76,1.14,1.29s-3.31-.13-3.62-.21c-1.3-.32-2.63-.67-3.92-1.11.63-1.09,1.25-2.24,1.75-3.19A15.54,15.54,0,0,0,770.12,499.4Z" transform="translate(-7.8 -149.56)"/><path class="bg" d="M760.22,491.33a3.09,3.09,0,0,1,2.69.42,9.48,9.48,0,0,1,2.79,3.17c.21.33.43.66.67,1a11.85,11.85,0,0,0,1.52,1.73c-.5.95-1.12,2.1-1.75,3.19a15.55,15.55,0,0,1-5.91-3.43,5.16,5.16,0,0,1-1.66-3.13A2.89,2.89,0,0,1,760.22,491.33Z" transform="translate(-7.8 -149.56)"/><path class="be" d="M750.5,522.22a59.71,59.71,0,0,1-.72-7.32c-.17-2.64-.42-6.94,2.54-8.35a4.63,4.63,0,0,1,4.93.39,6.7,6.7,0,0,1,2.41,4.13c.46,2.95-1,6.16-3,8.67A8.45,8.45,0,0,0,755.5,522,29.42,29.42,0,0,1,750.5,522.22Z" transform="translate(-7.8 -149.56)"/><path class="as" d="M755.5,522c-.83,2.29-.61,4.63.9,4.63,2,0,5.36,3.07,1.16,3.21a5.87,5.87,0,0,1-5.64-3.07,20.31,20.31,0,0,1-1.42-4.5A29.42,29.42,0,0,0,755.5,522Z" transform="translate(-7.8 -149.56)"/><path class="g" d="M759.47,480c.62.12,1.61,6.67,1.74,7.29A78.22,78.22,0,0,1,763,502.51c0,3.64-.29,7.72-2.1,10.89-2.67,4.66-9.37,4.9-13.81,4.65-2.61-.14-6.83-.82-8.28-3.51-1.89-3.5.07-9.6.85-13.25,1.74-8.14,5.32-15.32,5.32-23.8C745,477.07,759.47,480,759.47,480Z" transform="translate(-7.8 -149.56)"/><path class="be" d="M741.91,524.06a57.62,57.62,0,0,1-.73-7.31c-.17-2.65-.41-6.95,2.54-8.36a4.63,4.63,0,0,1,4.93.4,6.65,6.65,0,0,1,2.41,4.13c.46,2.94-1,6.15-3,8.66a8.11,8.11,0,0,0-1.2,2.22A28.41,28.41,0,0,1,741.91,524.06Z" transform="translate(-7.8 -149.56)"/><path class="as" d="M746.9,523.8c-.83,2.29-.61,4.62.91,4.62,2,0,5.35,3.07,1.15,3.21a5.87,5.87,0,0,1-5.64-3.07,20.11,20.11,0,0,1-1.41-4.5A28.41,28.41,0,0,0,746.9,523.8Z" transform="translate(-7.8 -149.56)"/><path class="i" d="M772.59,475.46c-.48.94-4-1.5-4.52-1.81-3-1.95-3.77-4.77-5.79-7.36s-4.79-3.44-8.1-3.91c-7.18-1-13.78,7.15-11.78,13.25,2.05,6.27,9.72,8.95,16.29,8a27.23,27.23,0,0,0,3.71-.81S769.63,481.25,772.59,475.46Z" transform="translate(-7.8 -149.56)"/><path class="bf" d="M750.85,479.69a7.41,7.41,0,0,0,4.29,4.12h0c.59,0,1.18,0,1.77,0h0c.25,0,.5,0,.76-.05h.18l.79-.09.94-.15.93-.19c.62-.14,1.24-.29,1.84-.47h.05l.35-.09h0a18.51,18.51,0,0,0,6.84-3.6,11.8,11.8,0,0,1-2.85-1.76c-1.83-1.26-2.46-3.3-4-4.75a8.39,8.39,0,0,0-5-2C753,470.22,749.36,475.87,750.85,479.69Zm19-.71-.19.16h0Zm0,0,0,0Zm0,0,0,0,0,0Z" transform="translate(-7.8 -149.56)"/><path class="az" d="M770.81,475.76a1.31,1.31,0,1,0,1.31-1.31A1.31,1.31,0,0,0,770.81,475.76Z" transform="translate(-7.8 -149.56)"/><rect class="aw" x="757.33" y="501.24" width="21.92" height="23.74" transform="translate(1528.79 876.66) rotate(-180)"/><path class="as" d="M755.79,499.4c.79.52,1.65.91,2.42,1.46.4.29,1.06.76,1.14,1.29s-3.31-.13-3.62-.21c-1.3-.32-2.63-.67-3.92-1.11.63-1.09,1.25-2.24,1.75-3.19A15.54,15.54,0,0,0,755.79,499.4Z" transform="translate(-7.8 -149.56)"/><path class="bh" d="M745.89,491.33a3.09,3.09,0,0,1,2.69.42,9.48,9.48,0,0,1,2.79,3.17q.32.49.66,1a12.55,12.55,0,0,0,1.53,1.73c-.5.95-1.12,2.1-1.75,3.19a15.55,15.55,0,0,1-5.91-3.43,5.16,5.16,0,0,1-1.66-3.13A2.87,2.87,0,0,1,745.89,491.33Z" transform="translate(-7.8 -149.56)"/><path class="bi" d="M756.76,481.79a2,2,0,0,1-2.51-1.2c-.1-.27.33-.38.42-.12a1.52,1.52,0,0,0,2,.9c.26-.1.37.32.11.42Z" transform="translate(-7.8 -149.56)"/><path class="ax" d="M751.11,477.07a1.65,1.65,0,1,0,1.65-1.65A1.65,1.65,0,0,0,751.11,477.07Z" transform="translate(-7.8 -149.56)"/><path class="bc" d="M754.41,472.81a1.78,1.78,0,1,0,1.78-1.77A1.78,1.78,0,0,0,754.41,472.81Z" transform="translate(-7.8 -149.56)"/><path class="az" d="M755.23,473.6a1.15,1.15,0,1,0,.33-1.59A1.16,1.16,0,0,0,755.23,473.6Z" transform="translate(-7.8 -149.56)"/><path class="ba" d="M756.34,472.47a.32.32,0,0,0,.44.1.33.33,0,0,0,.1-.45.32.32,0,0,0-.45-.09A.31.31,0,0,0,756.34,472.47Z" transform="translate(-7.8 -149.56)"/><path class="bf" d="M749.87,464.18l-.69.46c-.23.16-.45-.22-.22-.37l.69-.47c.24-.16.46.22.22.38Z" transform="translate(-7.8 -149.56)"/><path class="bf" d="M747.81,465.12a1.35,1.35,0,0,1-.41.62c-.21.18-.52-.13-.31-.31a1,1,0,0,0,.3-.43c.09-.27.52-.15.42.12Z" transform="translate(-7.8 -149.56)"/><path class="bf" d="M749.31,465.71l-.28.38c-.16.23-.54,0-.38-.22l.28-.38c.16-.23.54,0,.38.22Z" transform="translate(-7.8 -149.56)"/><path class="bf" d="M746.93,466.75a.72.72,0,0,1-.23.7c-.21.19-.52-.12-.31-.31a.28.28,0,0,0,.12-.28c-.06-.27.37-.39.42-.11Z" transform="translate(-7.8 -149.56)"/><path class="bf" d="M745.34,467.14a1.29,1.29,0,0,1-.28.48.22.22,0,0,1-.31-.31.64.64,0,0,0,.16-.29.22.22,0,0,1,.43.12Z" transform="translate(-7.8 -149.56)"/><path class="bf" d="M747.65,468.4a2.71,2.71,0,0,1-.19.93c-.1.26-.52.14-.42-.12a2.49,2.49,0,0,0,.17-.81.22.22,0,0,1,.44,0Z" transform="translate(-7.8 -149.56)"/><path class="bf" d="M744.79,469.49l-.11.28c-.11.26-.53.14-.43-.12l.11-.27c.11-.26.53-.15.43.11Z" transform="translate(-7.8 -149.56)"/><path class="bf" d="M753.17,463.81a1.45,1.45,0,0,1-.54.15c-.28,0-.28-.41,0-.43a1.09,1.09,0,0,0,.32-.1c.25-.12.48.25.22.38Z" transform="translate(-7.8 -149.56)"/><path class="bf" d="M751.92,465.21a1,1,0,0,0-.44.14c-.24.16-.46-.22-.22-.37a1.19,1.19,0,0,1,.66-.2.22.22,0,0,1,0,.43Z" transform="translate(-7.8 -149.56)"/><path class="bf" d="M750.93,464.44l-.27.11c-.26.11-.38-.32-.12-.42l.28-.11c.26-.1.37.32.11.42Z" transform="translate(-7.8 -149.56)"/><path class="bf" d="M751.59,463.27a1.09,1.09,0,0,0-.44,0c-.28,0-.28-.4,0-.44a1.52,1.52,0,0,1,.56,0c.27.07.15.49-.12.42Z" transform="translate(-7.8 -149.56)"/><path class="bf" d="M749.56,467.38a1.76,1.76,0,0,1-.66.28c-.27.06-.39-.36-.11-.42a1.59,1.59,0,0,0,.55-.24c.24-.15.46.23.22.38Z" transform="translate(-7.8 -149.56)"/><path class="bf" d="M746.06,470.2a.61.61,0,0,1-.28.51c-.24.16-.46-.22-.23-.38a.11.11,0,0,0,.07-.13.22.22,0,0,1,.44,0Z" transform="translate(-7.8 -149.56)"/><path class="bf" d="M744.09,471l-.23.55c-.1.25-.53.14-.42-.12l.23-.55c.1-.25.53-.14.42.12Z" transform="translate(-7.8 -149.56)"/><path class="bf" d="M742.82,472.61a.73.73,0,0,1-.17.49c-.18.22-.49-.1-.31-.31a.23.23,0,0,0,0-.18c0-.28.43-.28.44,0Z" transform="translate(-7.8 -149.56)"/><path class="bf" d="M743,474.48l0,.65c0,.29-.42.28-.44,0l-.05-.65c0-.28.41-.28.44,0Z" transform="translate(-7.8 -149.56)"/><path class="bf" d="M744.19,473.16a1.06,1.06,0,0,1,0,.66c-.09.27-.52.15-.43-.12a.58.58,0,0,0,0-.43c-.08-.27.34-.38.43-.11Z" transform="translate(-7.8 -149.56)"/><path class="bf" d="M745.87,472.34a.6.6,0,0,1-.15.6c-.18.21-.49-.1-.31-.31a.15.15,0,0,0,0-.17c-.07-.28.36-.39.42-.12Z" transform="translate(-7.8 -149.56)"/><path class="bf" d="M747.76,471a1,1,0,0,1-.24.59c-.17.22-.48-.09-.31-.31a.52.52,0,0,0,.11-.28c0-.28.46-.29.44,0Z" transform="translate(-7.8 -149.56)"/><path class="bf" d="M748.1,472.34a1.89,1.89,0,0,0-.17.66c0,.28-.46.28-.44,0a2.44,2.44,0,0,1,.23-.88c.12-.26.5,0,.38.22Z" transform="translate(-7.8 -149.56)"/><path class="bf" d="M745.77,475.63a2.74,2.74,0,0,0,.18.75c.11.27-.32.38-.42.12a3.24,3.24,0,0,1-.2-.87c0-.28.41-.28.44,0Z" transform="translate(-7.8 -149.56)"/><path class="bf" d="M744.36,475.9c0,.24.09.47.14.71s-.37.4-.42.12l-.14-.72c-.06-.27.36-.39.42-.11Z" transform="translate(-7.8 -149.56)"/><path class="bf" d="M745.63,478.49a1.16,1.16,0,0,1,.49.54c.11.25-.26.48-.38.22a.72.72,0,0,0-.33-.38.22.22,0,0,1,.22-.38Z" transform="translate(-7.8 -149.56)"/><path class="bf" d="M746.71,477.65l.17.38c.1.26-.32.38-.43.12l-.16-.39c-.11-.26.32-.37.42-.11Z" transform="translate(-7.8 -149.56)"/><path class="bf" d="M744,477.61l.22.22a.22.22,0,0,1-.31.31l-.22-.22a.22.22,0,0,1,.31-.31Z" transform="translate(-7.8 -149.56)"/><path class="bf" d="M747.54,481.27a.9.9,0,0,1-.25-.33c-.11-.25.27-.48.38-.22a.61.61,0,0,0,.18.24c.22.18-.1.49-.31.31Z" transform="translate(-7.8 -149.56)"/><path class="bf" d="M745.92,482.15l-.21.71a.22.22,0,0,1-.42-.11l.21-.72a.22.22,0,0,1,.42.12Z" transform="translate(-7.8 -149.56)"/><path class="bf" d="M746.49,483.35v.55a.22.22,0,0,1-.44,0v-.55a.22.22,0,0,1,.44,0Z" transform="translate(-7.8 -149.56)"/><path class="bf" d="M744.89,487.12a.59.59,0,0,0-.15.4c0,.28-.45.28-.44,0a1.09,1.09,0,0,1,.28-.71c.19-.21.5.1.31.31Z" transform="translate(-7.8 -149.56)"/><path class="bf" d="M745.94,485.33a.78.78,0,0,1-.13.44c-.16.23-.54,0-.38-.23a.39.39,0,0,0,.08-.21c0-.28.45-.29.43,0Z" transform="translate(-7.8 -149.56)"/><path class="bf" d="M745.87,488.4l-.45.6c-.16.22-.54,0-.37-.22l.44-.6c.17-.22.55,0,.38.22Z" transform="translate(-7.8 -149.56)"/><path class="bf" d="M740.47,504.05a2.77,2.77,0,0,0-.22.46c-.1.26-.52.15-.42-.12a3.15,3.15,0,0,1,.26-.56.22.22,0,0,1,.38.22Z" transform="translate(-7.8 -149.56)"/><path class="bf" d="M741.32,505.57a2.19,2.19,0,0,0-.39.58c-.12.26-.5,0-.38-.22a2.58,2.58,0,0,1,.46-.67c.19-.2.5.11.31.31Z" transform="translate(-7.8 -149.56)"/><path class="bf" d="M742.89,505.88a5.23,5.23,0,0,0-.64.77c-.16.23-.54,0-.38-.23a6.27,6.27,0,0,1,.71-.85c.2-.19.51.12.31.31Z" transform="translate(-7.8 -149.56)"/><path class="bf" d="M742.31,502.84a1.57,1.57,0,0,0-.42.57c-.11.26-.53.15-.42-.11a2,2,0,0,1,.53-.77c.22-.18.53.13.31.31Z" transform="translate(-7.8 -149.56)"/><path class="bf" d="M741.11,501.28l-.24.43c-.13.25-.51,0-.38-.22l.24-.43a.22.22,0,0,1,.38.22Z" transform="translate(-7.8 -149.56)"/><path class="bf" d="M740,507.08a1.57,1.57,0,0,1-.06.61.22.22,0,0,1-.42-.12,1.17,1.17,0,0,0,0-.49c0-.28.42-.28.44,0Z" transform="translate(-7.8 -149.56)"/><path class="bf" d="M741.42,508.23a4,4,0,0,0-.36.82c-.08.27-.51.16-.42-.11a4.28,4.28,0,0,1,.4-.93.22.22,0,0,1,.38.22Z" transform="translate(-7.8 -149.56)"/><path class="bf" d="M739.31,509.49v.44a.22.22,0,0,1-.43,0v-.44a.22.22,0,0,1,.43,0Z" transform="translate(-7.8 -149.56)"/><path class="bf" d="M739.21,512.33a3,3,0,0,1,.11.67c0,.28-.43.28-.44,0a2.05,2.05,0,0,0-.1-.55.22.22,0,0,1,.43-.12Z" transform="translate(-7.8 -149.56)"/><path class="bf" d="M740.63,512c-.07.29-.14.59-.22.88a.22.22,0,0,1-.42-.12l.22-.88c.07-.27.49-.15.42.12Z" transform="translate(-7.8 -149.56)"/><path class="bf" d="M740,514.75l.12.55c0,.27-.37.39-.43.11s-.07-.36-.11-.54.37-.4.42-.12Z" transform="translate(-7.8 -149.56)"/><path class="bf" d="M737.41,503.52a2.19,2.19,0,0,0-.2-.66c-.13-.25.25-.47.38-.22a2.47,2.47,0,0,1,.25.88c0,.28-.4.27-.43,0Z" transform="translate(-7.8 -149.56)"/><path class="bf" d="M737.22,505.49A.77.77,0,0,0,737,505c-.19-.21.12-.52.31-.31a1.28,1.28,0,0,1,.35.85.22.22,0,0,1-.44,0Z" transform="translate(-7.8 -149.56)"/><path class="bf" d="M735.84,501.71l-.2-.45c-.12-.25.26-.48.38-.22l.2.45c.12.25-.26.48-.38.22Z" transform="translate(-7.8 -149.56)"/><path class="bf" d="M736.42,500.35c-.08-.15-.17-.3-.26-.44a.22.22,0,0,1,.38-.23l.26.45c.15.24-.23.46-.38.22Z" transform="translate(-7.8 -149.56)"/><path class="bf" d="M734.78,497.16a.68.68,0,0,0-.23-.44c-.21-.19.1-.5.31-.31a1.14,1.14,0,0,1,.36.75c0,.28-.42.28-.44,0Z" transform="translate(-7.8 -149.56)"/><path class="bf" d="M734.63,499.35l-.27-.6c-.12-.25.26-.48.38-.22l.27.6c.12.26-.26.48-.38.22Z" transform="translate(-7.8 -149.56)"/><rect class="am" x="686.66" y="468.7" width="1.31" height="26.52" rx="0.19" ry="0.19" transform="translate(-156 413.67) rotate(-40.59)"/><rect class="aw" x="659.97" y="453.91" width="32.43" height="27.37" transform="translate(1487.68 249.91) rotate(140.58)"/><path class="bj" d="M712.13,493.4a12.32,12.32,0,0,1,3.83,7.26,4.63,4.63,0,0,1-2,4.36c-2.47,1.67-7.15,2.56-10,1.41a13.17,13.17,0,0,1-5.7-4.83c-.68-1-1.19-2-1.93-2.94a15.42,15.42,0,0,0-1.44-1.58c-.43-.4-1.29-.79-1.6-1.24,0,0-1.11-1.57,2.82-.17s3.19,1.51,3.19,1.51-4.66-3.78-7.12-4.59c0,0-2.76-1.8.74-1.45a24,24,0,0,1,7.3,2.32s-8-4-9.88-4.18c0,0-1.29-.52.31-.93S707.1,488.52,712.13,493.4Z" transform="translate(-7.8 -149.56)"/><path class="bb" d="M713.65,524.64l1.46.07q.5-4.82.81-9.65c.07-1.07,1.74-1.08,1.68,0-.21,3.28-.49,6.54-.83,9.81l.08.06a8.63,8.63,0,0,0,1.88,1.53.84.84,0,0,1-.85,1.45,10.05,10.05,0,0,1-1.49-1.1,6.31,6.31,0,0,1-.81,1.11.84.84,0,0,1-1.19-1.18c.1-.12.2-.24.29-.37h-.07l-1-.05C712.58,526.26,712.57,524.58,713.65,524.64Z" transform="translate(-7.8 -149.56)"/><path class="bb" d="M721,524.64c.48-.07,1-.16,1.45-.22q-.47-4.81-1.11-9.62c-.14-1.06,1.5-1.4,1.65-.33.43,3.25.81,6.51,1.12,9.78l.08,0a8.66,8.66,0,0,0,2.15,1.13.84.84,0,0,1-.55,1.58,10.25,10.25,0,0,1-1.68-.78,6.73,6.73,0,0,1-.58,1.25.84.84,0,1,1-1.39-.93q.11-.19.21-.42h-.08l-.94.14C720.29,526.43,720,524.79,721,524.64Z" transform="translate(-7.8 -149.56)"/><path class="bg" d="M738.31,513.09a1.29,1.29,0,0,0,.17-.33,8.56,8.56,0,0,0,.28-2.09q.5-4.19.63-8.39c.28-8.14-.26-16.58-2.95-24.33-1.86-5.35-4.92-10.44-9.71-13.64-4.3-2.87-9.83-4.53-14.27-1-3.73,2.94-5.46,7.91-6.41,12.38a22.59,22.59,0,0,0-.31,6.2c.36,6,.6,12,.71,18a135.22,135.22,0,0,1-.08,15.2.56.56,0,0,0,0,.34.62.62,0,0,0,.41.24c5.4,1.34,11.66.85,17.16.49a66.7,66.7,0,0,0,8-.93C733.66,514.92,737.25,514.72,738.31,513.09Z" transform="translate(-7.8 -149.56)"/><path class="bk" d="M716.41,474.46a2,2,0,1,0,2-2A2,2,0,0,0,716.41,474.46Z" transform="translate(-7.8 -149.56)"/><path class="bj" d="M715.78,486.19a1,1,0,0,0,.44-1.07c-.31-2.72-.53-10.35-3.93-11.25-6.48-1.72-18.3,6-16.83,13.25a13.28,13.28,0,0,1,2.81-.45c3.17-.15,6.62-.24,9.89-.25C710,486.42,714.17,487.28,715.78,486.19Z" transform="translate(-7.8 -149.56)"/><path class="bg" d="M718.86,466.19a23.56,23.56,0,0,1-1.48-15.46,3.62,3.62,0,0,1,1-1.93,2.18,2.18,0,0,1,3,.48,6.12,6.12,0,0,1,1.19,3.27,18.94,18.94,0,0,1-3.82,14Z" transform="translate(-7.8 -149.56)"/><path class="bg" d="M720.18,462.66a14.7,14.7,0,0,1,5-9,2.3,2.3,0,0,1,1.28-.66,1.6,1.6,0,0,1,1.54,1.46,3.93,3.93,0,0,1-.55,2.27,12,12,0,0,1-7.53,6Z" transform="translate(-7.8 -149.56)"/><path class="bg" d="M720.15,462.31a15.24,15.24,0,0,1,8.06-3.11,2.17,2.17,0,0,1,1.15.13.94.94,0,0,1,.15,1.43,3.84,3.84,0,0,1-1.59,1.06,11.89,11.89,0,0,1-8,.46Z" transform="translate(-7.8 -149.56)"/><path class="bj" d="M726.41,504.61a13.39,13.39,0,0,1-3.83-7.68,5.06,5.06,0,0,1,2-4.61c2.48-1.77,7.16-2.7,10-1.48a13.44,13.44,0,0,1,5.7,5.1c.67,1,1.19,2.14,1.93,3.11a15.27,15.27,0,0,0,1.44,1.67c.43.42,1.29.83,1.6,1.31,0,0,1.11,1.66-2.82.18s-3.19-1.59-3.19-1.59,4.66,4,7.12,4.85c0,0,2.76,1.9-.74,1.53a23.19,23.19,0,0,1-7.3-2.45s8,4.23,9.88,4.42c0,0,1.29.55-.31,1S731.45,509.77,726.41,504.61Z" transform="translate(-7.8 -149.56)"/><path class="bg" d="M736.79,510.74a8.78,8.78,0,0,1,2.65.6c4.18,1.3,8.7,1,13,1.92.4.08.9.36.78.75a.76.76,0,0,1-.36.35,14.19,14.19,0,0,1-12.15,1.1,2.7,2.7,0,0,1,2,1.78c-1.33.11-2.51-.78-3.54-1.62a5.58,5.58,0,0,1,.58,2.12,1.81,1.81,0,0,1-1.66-.35A5.42,5.42,0,0,1,737,516a11.24,11.24,0,0,1-2.08-4.69,2.23,2.23,0,0,0,1.87-.65Z" transform="translate(-7.8 -149.56)"/><path class="ax" d="M718.61,484a3.12,3.12,0,1,0,3.12-3.12A3.12,3.12,0,0,0,718.61,484Z" transform="translate(-7.8 -149.56)"/><path class="az" d="M717.69,475.06a1,1,0,1,0,1.84.55,1,1,0,1,0-1.84-.55Z" transform="translate(-7.8 -149.56)"/><path class="ba" d="M719,475.17a.27.27,0,1,0,.33-.18A.25.25,0,0,0,719,475.17Z" transform="translate(-7.8 -149.56)"/><path class="bc" d="M724.15,464.73a2,2,0,0,1,1.21.61c.16.17.42-.09.26-.26a2.34,2.34,0,0,0-1.37-.71c-.23,0-.33.33-.1.36Z" transform="translate(-7.8 -149.56)"/><path class="bc" d="M727.22,467.62l.36.28c.18.15.45-.11.26-.26l-.36-.28c-.18-.15-.45.11-.26.26Z" transform="translate(-7.8 -149.56)"/><path class="bc" d="M724.61,466.85a1.07,1.07,0,0,1,.62.61c.08.22.44.13.36-.1a1.44,1.44,0,0,0-.88-.86c-.22-.08-.32.27-.1.35Z" transform="translate(-7.8 -149.56)"/><path class="bc" d="M722.75,465.85l.28.37c.14.19.46,0,.32-.19l-.28-.36c-.14-.19-.46,0-.32.18Z" transform="translate(-7.8 -149.56)"/><path class="bc" d="M729.14,469l.65.54c.18.16.44-.1.26-.26l-.65-.54c-.18-.15-.45.11-.26.26Z" transform="translate(-7.8 -149.56)"/><path class="bc" d="M727.71,466.18a3.45,3.45,0,0,1,.69.63c.15.19.41-.08.26-.26a4.16,4.16,0,0,0-.76-.69c-.2-.14-.38.18-.19.32Z" transform="translate(-7.8 -149.56)"/><path class="bc" d="M731.81,471l.54.65c.16.19.42-.08.26-.26l-.54-.65c-.15-.18-.41.08-.26.26Z" transform="translate(-7.8 -149.56)"/><path class="bc" d="M729.92,471.71a.65.65,0,0,1,.37.45.18.18,0,0,0,.35-.1,1,1,0,0,0-.54-.67c-.21-.1-.4.22-.18.32Z" transform="translate(-7.8 -149.56)"/><path class="bc" d="M726.88,469.73a3.21,3.21,0,0,1,.37.77.19.19,0,0,0,.36-.1,3.57,3.57,0,0,0-.41-.86c-.13-.2-.45,0-.32.19Z" transform="translate(-7.8 -149.56)"/><path class="bc" d="M724.52,469.15l.33.49c.13.2.45,0,.32-.18l-.33-.49c-.13-.2-.45,0-.32.18Z" transform="translate(-7.8 -149.56)"/><path class="bc" d="M733,473.53a2.28,2.28,0,0,1,.59.93c.07.23.43.13.36-.09a2.64,2.64,0,0,0-.69-1.1c-.18-.16-.44.1-.26.26Z" transform="translate(-7.8 -149.56)"/><path class="bc" d="M730.88,474.22l.45.65c.13.2.45,0,.31-.18l-.44-.66c-.14-.19-.46,0-.32.19Z" transform="translate(-7.8 -149.56)"/><path class="bc" d="M734.53,477.18l.28.55c.11.22.43,0,.32-.18s-.19-.37-.28-.55-.42,0-.32.18Z" transform="translate(-7.8 -149.56)"/><path class="bc" d="M732.72,476.89l.26.47a.19.19,0,0,0,.32-.19l-.26-.46a.18.18,0,0,0-.32.18Z" transform="translate(-7.8 -149.56)"/><path class="bc" d="M731.88,478.19l.27.46a.19.19,0,0,0,.32-.19l-.27-.46a.19.19,0,0,0-.32.19Z" transform="translate(-7.8 -149.56)"/><path class="bc" d="M729.2,476.53a1,1,0,0,1,.07.51c0,.23.32.33.35.09a1.39,1.39,0,0,0-.1-.78c-.09-.22-.41,0-.32.18Z" transform="translate(-7.8 -149.56)"/><path class="bc" d="M734.44,480.45l.25.83c.07.23.43.13.36-.09s-.17-.56-.26-.84a.18.18,0,0,0-.35.1Z" transform="translate(-7.8 -149.56)"/><path class="bc" d="M736,481l.3.64c.1.21.42,0,.32-.19l-.3-.63c-.1-.22-.42,0-.32.18Z" transform="translate(-7.8 -149.56)"/><path class="bc" d="M732,481.6a.81.81,0,0,1,.07.46c0,.23.34.23.37,0a1.22,1.22,0,0,0-.12-.65c-.1-.21-.42,0-.32.19Z" transform="translate(-7.8 -149.56)"/><path class="bc" d="M737,484.5l.21.83c0,.22.41.13.35-.1l-.21-.82a.18.18,0,0,0-.35.09Z" transform="translate(-7.8 -149.56)"/><path class="bc" d="M735.07,483.81v.74a.19.19,0,0,0,.37,0v-.74a.19.19,0,0,0-.37,0Z" transform="translate(-7.8 -149.56)"/><path class="bc" d="M732.77,484.08v.65a.18.18,0,0,0,.36,0v-.65a.18.18,0,0,0-.36,0Z" transform="translate(-7.8 -149.56)"/><path class="bc" d="M731.66,485.47a.31.31,0,0,1-.13.32c-.19.15.07.41.26.26a.65.65,0,0,0,.24-.58c0-.24-.4-.24-.37,0Z" transform="translate(-7.8 -149.56)"/><path class="bc" d="M737.06,487.62a1.51,1.51,0,0,1,0,.52c0,.23.35.23.37,0a1.84,1.84,0,0,0-.05-.62.18.18,0,0,0-.35.1Z" transform="translate(-7.8 -149.56)"/><path class="bc" d="M735,486.91v0a.18.18,0,0,0,.35.1.33.33,0,0,0-.17-.39c-.21-.1-.4.21-.18.31Z" transform="translate(-7.8 -149.56)"/><path class="bc" d="M732.77,486.76v.55a.18.18,0,0,0,.36,0v-.55a.18.18,0,1,0-.36,0Z" transform="translate(-7.8 -149.56)"/><path class="bc" d="M735.8,489.11l.1.64c0,.24.39.14.35-.1l-.09-.64c0-.23-.39-.13-.36.1Z" transform="translate(-7.8 -149.56)"/><path class="bc" d="M737.39,510a1,1,0,0,1,.09,1c-.08.22.27.32.36.1a1.45,1.45,0,0,0-.13-1.25c-.13-.2-.45,0-.32.19Z" transform="translate(-7.8 -149.56)"/><path class="bc" d="M735.71,510.24v.46a.19.19,0,0,0,.37,0v-.46a.19.19,0,0,0-.37,0Z" transform="translate(-7.8 -149.56)"/><path class="bc" d="M735.81,513.46v.09a.18.18,0,1,0,.36,0v-.09a.18.18,0,0,0-.36,0Z" transform="translate(-7.8 -149.56)"/><path class="bc" d="M743.48,501.45a13.37,13.37,0,0,1-5-3.77c-.15-.19-.41.08-.26.26a13.54,13.54,0,0,0,5,3.83c.21.1.4-.22.19-.32Z" transform="translate(-7.8 -149.56)"/><path class="bc" d="M744.15,505.59a21.33,21.33,0,0,1-5.14-3.1c-.18-.15-.44.11-.26.26a21.52,21.52,0,0,0,5.22,3.16c.21.1.4-.22.18-.32Z" transform="translate(-7.8 -149.56)"/><path class="bc" d="M743.94,508.75a18.25,18.25,0,0,1-6.18-2.94c-.19-.14-.37.18-.18.32a18.23,18.23,0,0,0,6.26,3,.18.18,0,0,0,.1-.35Z" transform="translate(-7.8 -149.56)"/><path class="bc" d="M751.52,513.52a2.07,2.07,0,0,0-1,.06c-.23.08-.13.43.1.36a1.63,1.63,0,0,1,.82-.07c.23,0,.33-.31.1-.35Z" transform="translate(-7.8 -149.56)"/><path class="bc" d="M748.94,513.35a1.71,1.71,0,0,0-.84-.06c-.24,0-.14.39.1.36a1.26,1.26,0,0,1,.64.05c.23.08.33-.28.1-.35Z" transform="translate(-7.8 -149.56)"/><path class="bc" d="M750.08,514.29h-.65a.19.19,0,0,0,0,.37h.65a.19.19,0,0,0,0-.37Z" transform="translate(-7.8 -149.56)"/><path class="bc" d="M747.22,514.29h-.46a.19.19,0,0,0,0,.37h.46a.19.19,0,0,0,0-.37Z" transform="translate(-7.8 -149.56)"/><path class="bc" d="M741.82,516.38l-.18-.19a.18.18,0,0,0-.26.26l.18.19c.17.16.43-.1.26-.26Z" transform="translate(-7.8 -149.56)"/><path class="bc" d="M738.12,516.14l.1.18c.1.21.42,0,.31-.18l-.09-.19c-.11-.21-.43,0-.32.19Z" transform="translate(-7.8 -149.56)"/><path class="bc" d="M712.51,475.06h-.37a.19.19,0,0,0,0,.37h.37a.19.19,0,0,0,0-.37Z" transform="translate(-7.8 -149.56)"/><path class="bc" d="M710.48,474.69a2.19,2.19,0,0,0-.88.1c-.22.07-.13.43.1.36a1.73,1.73,0,0,1,.78-.09c.24,0,.23-.34,0-.37Z" transform="translate(-7.8 -149.56)"/><path class="bc" d="M707.72,474.91l-.56.25c-.22.1,0,.42.18.32l.57-.25c.21-.1,0-.42-.19-.32Z" transform="translate(-7.8 -149.56)"/><path class="bc" d="M710.76,475.8h-.56a.19.19,0,0,0,0,.37h.56a.19.19,0,0,0,0-.37Z" transform="translate(-7.8 -149.56)"/><path class="bc" d="M713.06,476.63h-.28a.18.18,0,0,0,0,.36h.28a.18.18,0,0,0,0-.36Z" transform="translate(-7.8 -149.56)"/><path class="bc" d="M710.94,477h-.55a.19.19,0,0,0,0,.37h.55a.19.19,0,0,0,0-.37Z" transform="translate(-7.8 -149.56)"/><path class="bc" d="M708,476.64a.4.4,0,0,0-.48.17c-.15.19.17.37.31.18a.06.06,0,0,1,.07,0c.23.07.32-.28.1-.36Z" transform="translate(-7.8 -149.56)"/><path class="bc" d="M705.75,475l-.19.19c-.17.16.09.42.26.26l.19-.19c.16-.17-.1-.43-.26-.26Z" transform="translate(-7.8 -149.56)"/><path class="bc" d="M706.22,476.42l-.18.18a.18.18,0,0,0,.26.26l.18-.18a.18.18,0,0,0-.26-.26Z" transform="translate(-7.8 -149.56)"/><path class="bc" d="M713.83,478.1a.24.24,0,0,1-.26.09c-.23-.05-.33.3-.1.36a.65.65,0,0,0,.68-.26c.14-.19-.18-.38-.32-.19Z" transform="translate(-7.8 -149.56)"/><path class="bc" d="M721.63,462.73l-.46-.27a.19.19,0,0,0-.19.32l.47.27a.18.18,0,0,0,.18-.32Z" transform="translate(-7.8 -149.56)"/><path class="bc" d="M720,464.13l.45.37c.19.15.45-.11.27-.26l-.46-.37c-.19-.15-.45.11-.26.26Z" transform="translate(-7.8 -149.56)"/><path class="bc" d="M717.24,462.45a.32.32,0,0,1,.27.17.18.18,0,0,0,.32-.18.7.7,0,0,0-.49-.35c-.23,0-.33.32-.1.36Z" transform="translate(-7.8 -149.56)"/><path class="bc" d="M719.41,465.48a.19.19,0,0,0,0-.37.19.19,0,0,0,0,.37Z" transform="translate(-7.8 -149.56)"/><path class="bc" d="M721.62,467.32a.18.18,0,0,0,0-.36.18.18,0,0,0,0,.36Z" transform="translate(-7.8 -149.56)"/><path class="bc" d="M713.89,463h0c0,.23.37.23.36,0a.36.36,0,0,0-.36-.37c-.24,0-.24.36,0,.37Z" transform="translate(-7.8 -149.56)"/><path class="b" d="M194.91,603.29c-16.85-.74-33.54-2-49.87-4a123,123,0,0,1-18.7-3.42c-2.16-.62-4.33-1.38-5.59-2.56-7-6.59,12.09-14.23,21-15.77,12.54-2.17,26.18-1.53,39.15-2,39.85-1.56,79.89-1.85,119.87-.78,17.86.48,36.5,1.06,54.59,2.21,16.46,1,38.41,1.08,51.27,7.81q.69.36,1.35.75c2.54,1.5,4.23,3.61,3.53,5.63-.61,1.72-2.82,3.1-5.14,4.26-15.45,7.73-35,8.92-54.89,9.52-25.68.78-51.54-.34-77.17-.41C247.84,604.46,221.34,604.46,194.91,603.29Z" transform="translate(-7.8 -149.56)"/><path class="y" d="M160.78,455.24c-12.41,4.15-17,5.06-16.25,10.77s8.33,15.31,24.92,9.59,20-25.72,16-29.72S173.19,451.09,160.78,455.24Z" transform="translate(-7.8 -149.56)"/><polygon class="bg" points="138.12 315.88 133.66 310.95 140.26 310.2 138.12 315.88"/><polygon class="bg" points="139.15 321.71 133.53 321.46 137.6 317.58 139.15 321.71"/><polygon class="bg" points="145.92 326.76 139.62 327.78 143.34 322.6 145.92 326.76"/><path class="bg" d="M259.66,405.42c-.27-4.28,3.79-6.29,9-4.47l13.06,4.57c5.22,1.83,5.44,5.34.49,7.79l-12.4,6.16c-4.95,2.46-9.22,1-9.48-3.32Z" transform="translate(-7.8 -149.56)"/><path class="bg" d="M267.24,434.71c-.26-4.28,3.79-6.29,9-4.47l13.06,4.57c5.21,1.83,5.43,5.34.48,7.8l-12.39,6.15c-4.95,2.46-9.22,1-9.49-3.32Z" transform="translate(-7.8 -149.56)"/><path class="bg" d="M264.87,459.42c-.24-3.95,3.22-5.79,7.7-4.08l11.22,4.27c4.48,1.7,4.68,4.94.45,7.19l-10.6,5.62c-4.24,2.25-7.91.85-8.15-3.1Z" transform="translate(-7.8 -149.56)"/><path class="bg" d="M265.77,489.2c-.22-3.56,3.24-5.24,7.7-3.73l11.15,3.78c4.46,1.51,4.64,4.42.41,6.47l-10.6,5.14c-4.24,2.05-7.89.81-8.11-2.75Z" transform="translate(-7.8 -149.56)"/><path class="bg" d="M284.09,522.23c-2.7-2.34-1.46-6,2.74-8.11l10.52-5.3c4.2-2.12,6.41-.2,4.9,4.26l-3.78,11.15c-1.51,4.46-5,6.19-7.64,3.85Z" transform="translate(-7.8 -149.56)"/><path class="bg" d="M305.57,538.44c-2.94-1.59-2.84-4.64.22-6.76l7.65-5.32c3.06-2.13,5.46-.82,5.34,2.9l-.3,9.31c-.12,3.73-2.62,5.47-5.56,3.87Z" transform="translate(-7.8 -149.56)"/><path class="bg" d="M328.42,549.49c-2.22-1.2-2.08-3.62.31-5.38l6-4.38c2.39-1.76,4.2-.77,4,2.19l-.43,7.4c-.17,3-2.13,4.39-4.34,3.19Z" transform="translate(-7.8 -149.56)"/><path class="bg" d="M348.37,560.16c-2.43-.69-2.82-3.08-.88-5.31l4.87-5.59c1.95-2.24,3.93-1.67,4.42,1.25l1.2,7.31c.48,2.93-1.11,4.76-3.54,4.07Z" transform="translate(-7.8 -149.56)"/><path class="y" d="M202.19,542.1c.71-3.84,3.2-7.57,8.19-10.86,4.72-3.11,11.82-3.28,17.38-1.52,10.55,3.33,10,14.42,9.58,21.24-.66,10.92-.68,20.27-6.68,30.62,0,0-4.87,8.4-19.7,8.47-3.89,0-9.7-.79-5.3-5,3.45-3.3,6.91-2.43,9.92-6.24,3.69-4.68,1.25-11.51-2.29-14.7C206.34,557.84,200.77,549.72,202.19,542.1Z" transform="translate(-7.8 -149.56)"/><polygon class="bl" points="206.23 241.05 199.28 232.56 192.02 240.45 184.86 232.25 177.76 240.41 170.44 232.46 163.51 240.87 156.02 233.21 149.29 241.89 141.61 234.55 135.12 243.56 127.23 236.62 122.07 242.92 206.23 241.05"/><polygon class="bl" points="115.82 225.49 122.77 233.98 130.03 226.09 137.2 234.29 144.29 226.14 151.62 234.08 158.54 225.67 166.03 233.34 172.76 224.65 180.44 231.99 186.93 222.99 194.82 229.92 199.99 223.62 115.82 225.49"/><polygon class="bm" points="121.95 222.09 128.89 230.58 136.16 222.69 143.32 230.89 150.41 222.74 157.74 230.68 164.66 222.27 172.16 229.94 178.88 221.25 186.56 228.59 193.06 219.59 200.95 226.52 206.11 220.22 121.95 222.09"/><path class="bn" d="M120.16,355.52c.66-1.11,6-3.76,32.55-5.6s69-11.67,72.55-14.28-5.89-17.8,9.52-19.32c0,0,9.35.09,11.27,4.71,0,0,11.54,13.69,15.16,14.66s11.56,2.19,10.12,40,2.82,141.89.11,155.48c-7.23,36.29-72.31,35.27-85.33,7.25-8.4-18.08-11.73-38.34-11-58.18.36-9.31,1.25-19,4.33-27.85s8-17,10.69-26.1c2.1-7.16,4-17,.7-24.23,0,0-42.42-4.37-59.51-7.29-1.8-.31-3.09-7.46-3.09-7.46,10,1.77,20.22,3,30.37,3.79a225.93,225.93,0,0,0,25.49.85c5.72-.17,29.74-.06,24.08-12.31,0,0-58,7.05-85.66-4C122.53,375.58,116.73,361.37,120.16,355.52Z" transform="translate(-7.8 -149.56)"/><path class="bo" d="M234.7,496c-1.73-24.57-16.6-65.42-45.06-68.7-2.7,8.8-7.45,16.78-10.47,25.46-3.08,8.84-4,18.53-4.33,27.84-.76,19.84,2.58,40.11,11,58.18,3.7,8,11.61,13.75,21.2,17.11C226.55,544.72,236.35,519.35,234.7,496Z" transform="translate(-7.8 -149.56)"/><rect class="am" x="110.97" y="406.97" width="3.9" height="79.02" rx="0.59" ry="0.59" transform="translate(-334.61 160.05) rotate(-58.52)"/><rect class="aw" x="19.89" y="375.17" width="96.62" height="81.55" transform="translate(447.39 433.41) rotate(122.66)"/><ellipse class="bn" cx="258.75" cy="340.6" rx="11.77" ry="12.02" transform="translate(-17.4 -142.05) rotate(-1.63)"/><ellipse class="bn" cx="235.05" cy="325.48" rx="11.49" ry="11.32" transform="translate(-16.94 -142.76) rotate(-1.63)"/><path class="bn" d="M226,545.34c.71-3.85,3.2-7.57,8.19-10.86,4.72-3.12,11.82-3.28,17.38-1.53,10.55,3.33,10,14.42,9.59,21.25-.67,10.92-.69,20.27-6.69,30.62,0,0-4.87,8.4-19.7,8.46-3.89,0-9.7-.78-5.3-5,3.45-3.3,6.91-2.43,9.92-6.24,3.69-4.69,1.25-11.52-2.29-14.7C230.17,561.07,224.6,553,226,545.34Z" transform="translate(-7.8 -149.56)"/><path class="bn" d="M272.12,496.28s42.95,56.65,121.4,72.74c0,0-49.84,16.88-123.22-10.51S272.12,496.28,272.12,496.28Z" transform="translate(-7.8 -149.56)"/><path class="ba" d="M237.9,324.62a5.83,5.83,0,1,1-6.76-5.31A6.09,6.09,0,0,1,237.9,324.62Z" transform="translate(-7.8 -149.56)"/><path class="bp" d="M234.6,323.74a2.7,2.7,0,1,1-3.1-2.22A2.71,2.71,0,0,1,234.6,323.74Z" transform="translate(-7.8 -149.56)"/><path class="ba" d="M264.56,340.43a5.83,5.83,0,1,1-6-6.16A6.08,6.08,0,0,1,264.56,340.43Z" transform="translate(-7.8 -149.56)"/><path class="bp" d="M261.4,339.12a2.69,2.69,0,1,1-2.77-2.62A2.69,2.69,0,0,1,261.4,339.12Z" transform="translate(-7.8 -149.56)"/><path class="bn" d="M131.64,348.88a5.79,5.79,0,0,1-11.54,0,5.79,5.79,0,1,1,11.54,0Z" transform="translate(-7.8 -149.56)"/><path class="au" d="M128,348c0,1.57-1,2.84-2.15,2.84s-2.16-1.27-2.16-2.84,1-2.85,2.16-2.85S128,346.41,128,348Z" transform="translate(-7.8 -149.56)"/><path class="bn" d="M144.21,354.43a5.79,5.79,0,0,1-11.53.32,5.78,5.78,0,1,1,11.53-.32Z" transform="translate(-7.8 -149.56)"/><path class="au" d="M140.57,353.62c.05,1.57-.88,2.87-2.07,2.91s-2.19-1.21-2.24-2.78.89-2.87,2.08-2.91S140.53,352.05,140.57,353.62Z" transform="translate(-7.8 -149.56)"/><path class="t" d="M241,376.35a7.29,7.29,0,1,1-7.49-7.08A7.29,7.29,0,0,1,241,376.35Z" transform="translate(-7.8 -149.56)"/><path class="bq" d="M219.92,449.82c-1.08-1.74-2.22-3.42-3.42-5a65.82,65.82,0,0,1-34-.31c-.78,1.76-1.55,3.53-2.26,5.32a71.19,71.19,0,0,0,39.64,0ZM176.33,507c.37,2.39.8,4.76,1.31,7.12A71.85,71.85,0,0,0,210.3,521a70.62,70.62,0,0,0,23-4.56c.46-2.19.82-4.41,1.08-6.64A65.59,65.59,0,0,1,176.33,507Zm16.61,28.77a65.32,65.32,0,0,1-9.81-3.29c.83,2.13,1.72,4.24,2.69,6.32.14.32.31.62.47.93a71.7,71.7,0,0,0,24.65,3.67,70.58,70.58,0,0,0,11.18-1.24,59.81,59.81,0,0,0,4.33-6.87A65.15,65.15,0,0,1,192.94,535.79Zm10.22-60.56a70.64,70.64,0,0,0,25.93-5.72q-.93-2.72-2-5.4a65.66,65.66,0,0,1-50.8.55q-.47,2.94-.77,5.9a71.84,71.84,0,0,0,20.37,4.51Q199.54,475.33,203.16,475.23Zm2,20.57a70.43,70.43,0,0,0,28.72-7c-.29-1.91-.66-3.89-1.09-5.9a65,65,0,0,1-38.87,6.56,65.76,65.76,0,0,1-19.15-5.75q0,3.17,0,6.32a71.38,71.38,0,0,0,18.31,5.12A72.82,72.82,0,0,0,205.15,495.8Z" transform="translate(-7.8 -149.56)"/><path class="br" d="M251.79,333.4l-1.92,1.92c-.65.66-1.67-.36-1-1l1.91-1.91a.72.72,0,0,1,1,1Z" transform="translate(-7.8 -149.56)"/><path class="br" d="M248.68,330a2.07,2.07,0,0,1-2.18,2.09c-.92-.06-.92-1.5,0-1.44a.63.63,0,0,0,.74-.65.72.72,0,0,1,1.44,0Z" transform="translate(-7.8 -149.56)"/><path class="br" d="M246.87,326.37l-1,.47c-.83.41-1.55-.83-.72-1.24l1-.47c.82-.41,1.55.83.72,1.24Z" transform="translate(-7.8 -149.56)"/><path class="br" d="M245.29,338.17a2,2,0,0,1-1.48,2.12.72.72,0,0,1-.39-1.39.57.57,0,0,0,.43-.73c-.11-.92,1.33-.91,1.44,0Z" transform="translate(-7.8 -149.56)"/><path class="br" d="M241.42,334.88a1.61,1.61,0,0,1-1,2.44c-.9.19-1.28-1.19-.38-1.38.22-.05.23-.18.12-.33-.54-.76.71-1.48,1.24-.73Z" transform="translate(-7.8 -149.56)"/><path class="br" d="M244.74,329.85a1.88,1.88,0,0,1-.76,2.24c-.75.54-1.47-.71-.72-1.24.22-.17.18-.39.1-.62-.33-.86,1.06-1.24,1.38-.38Z" transform="translate(-7.8 -149.56)"/><path class="br" d="M267.59,389.4a2.4,2.4,0,0,1,0,3.4c-.65.66-1.66-.36-1-1a1,1,0,0,0,0-1.38.71.71,0,0,1,1-1Z" transform="translate(-7.8 -149.56)"/><path class="br" d="M268.29,408.1v4.79a.72.72,0,0,1-1.44,0V408.1a.72.72,0,0,1,1.44,0Z" transform="translate(-7.8 -149.56)"/><path class="br" d="M260.12,399.54a3.54,3.54,0,0,1,.45,3,.72.72,0,0,1-1.38-.38,2.19,2.19,0,0,0-.31-1.89c-.52-.77.73-1.49,1.24-.73Z" transform="translate(-7.8 -149.56)"/><path class="br" d="M267.81,400.44v1.44a.72.72,0,0,1-1.44,0v-1.44a.72.72,0,0,1,1.44,0Z" transform="translate(-7.8 -149.56)"/><path class="br" d="M257.42,417.44a11.33,11.33,0,0,1,.26,4.74c-.13.91-1.52.52-1.38-.38a9.73,9.73,0,0,0-.27-4,.72.72,0,0,1,1.39-.38Z" transform="translate(-7.8 -149.56)"/><path class="br" d="M265.41,426.79v3.35a.72.72,0,0,1-1.44,0v-3.35a.72.72,0,0,1,1.44,0Z" transform="translate(-7.8 -149.56)"/><path class="br" d="M259.13,432.35a13,13,0,0,1,.54,4,.72.72,0,0,1-1.44,0,11.51,11.51,0,0,0-.49-3.64.72.72,0,0,1,1.39-.38Z" transform="translate(-7.8 -149.56)"/><path class="br" d="M267.06,451a16.64,16.64,0,0,1-.37,7.09.72.72,0,0,1-1.39-.38,14.83,14.83,0,0,0,.37-6.32c-.14-.91,1.24-1.3,1.39-.39Z" transform="translate(-7.8 -149.56)"/><path class="br" d="M259.2,449.36a5,5,0,0,1,.4,3.48c-.21.89-1.6.51-1.38-.39a3.47,3.47,0,0,0-.26-2.37c-.41-.82.82-1.55,1.24-.72Z" transform="translate(-7.8 -149.56)"/><path class="br" d="M252.88,440.78a6.61,6.61,0,0,1,.51,3.92c-.15.91-1.54.52-1.39-.38a4.84,4.84,0,0,0-.36-2.81c-.38-.84.86-1.57,1.24-.73Z" transform="translate(-7.8 -149.56)"/><path class="br" d="M266.85,441.64v1.91a.72.72,0,0,1-1.44,0v-1.91a.72.72,0,0,1,1.44,0Z" transform="translate(-7.8 -149.56)"/><path class="br" d="M270.67,467.5a10.6,10.6,0,0,1-.49,4.51c-.29.87-1.68.49-1.39-.39a9.44,9.44,0,0,0,.44-4.12c-.09-.91,1.34-.91,1.44,0Z" transform="translate(-7.8 -149.56)"/><path class="br" d="M264,466.54a7.39,7.39,0,0,1-1.07,4.2.72.72,0,0,1-1.24-.73,6.12,6.12,0,0,0,.88-3.47c0-.92,1.4-.92,1.43,0Z" transform="translate(-7.8 -149.56)"/><path class="br" d="M256.26,460.61a5,5,0,0,1-.5,3.44c-.43.82-1.67.09-1.24-.72a3.46,3.46,0,0,0,.35-2.34c-.18-.9,1.21-1.29,1.39-.38Z" transform="translate(-7.8 -149.56)"/><path class="br" d="M250,455.83a4.74,4.74,0,0,1-.46,3.44c-.45.82-1.69.09-1.24-.72a3.19,3.19,0,0,0,.31-2.34c-.21-.9,1.17-1.28,1.39-.38Z" transform="translate(-7.8 -149.56)"/><path class="br" d="M251.52,473.25v2.4a.72.72,0,0,1-1.44,0v-2.4a.72.72,0,0,1,1.44,0Z" transform="translate(-7.8 -149.56)"/><path class="br" d="M258.71,481.4v1.43a.72.72,0,0,1-1.44,0V481.4a.72.72,0,0,1,1.44,0Z" transform="translate(-7.8 -149.56)"/><path class="br" d="M265.89,482.83v2.4a.72.72,0,0,1-1.44,0v-2.4a.72.72,0,0,1,1.44,0Z" transform="translate(-7.8 -149.56)"/><path class="br" d="M267.81,495.29v1.43a.72.72,0,0,1-1.44,0v-1.43a.72.72,0,0,1,1.44,0Z" transform="translate(-7.8 -149.56)"/><path class="br" d="M257.59,490.9a2.64,2.64,0,0,1,.57,2.64c-.3.88-1.69.5-1.39-.38a1.17,1.17,0,0,0-.2-1.25c-.6-.69.41-1.71,1-1Z" transform="translate(-7.8 -149.56)"/><path class="bn" d="M221.3,485.49c-8.21,10.19-11.58,13.44-7.87,17.85s15.28,8.38,26.16-5.38,2.94-32.44-2.58-33.65S229.51,475.3,221.3,485.49Z" transform="translate(-7.8 -149.56)"/><polygon class="bg" points="206.5 353.8 200.08 352.06 205.24 347.86 206.5 353.8"/><polygon class="bg" points="210.51 356.9 205.64 359.71 206.97 354.25 210.51 356.9"/><polygon class="bg" points="217.76 356.03 215.6 362.04 212.86 356.27 217.76 356.03"/><text class="bs" transform="matrix(0.98, -0.2, 0.2, 0.98, 199.66, 140.53)">?</text><text class="bt" transform="translate(240.71 152.12) rotate(2.45)">?</text><rect class="bv" x="818.68" y="468.67" width="31" height="26.16" transform="translate(728.88 -626.16) rotate(54.18)"/><rect class="bv" x="757.33" y="501.24" width="21.92" height="23.74" transform="translate(1528.79 876.66) rotate(-180)"/><rect class="bv" x="659.97" y="453.91" width="32.43" height="27.37" transform="translate(1487.68 249.91) rotate(140.58)"/><rect class="bv" x="19.89" y="375.17" width="96.62" height="81.55" transform="translate(447.39 433.41) rotate(122.66)"/><path d="M51.19,447.65l-.89,1.41,4,3.35-1.16,1.84-3.94-3.35-1.21,1.93-1.82-1.14,1.38-2.2-2.71-2.31-1.23,2L41.72,448l1.4-2.24-4-3.4,1.15-1.83,4,3.4.89-1.43-4-3.4,1.15-1.83,4,3.4,1.19-1.89,1.83,1.15L48,442.08l2.71,2.32,1.21-1.92,1.81,1.14-1.37,2.18,3.94,3.36L55.13,451Zm-2.54,0,.9-1.43-2.72-2.3L46,445.34Z" transform="translate(-7.8 -149.56)"/><path d="M57,435.53l-1,1.54,5.61,3.52-1.94,3.1-15.36-9.64,3.1-4.95a5.94,5.94,0,0,1,3.47-2.84,5.33,5.33,0,0,1,4.23.88q3.06,1.92,2.89,4.92l8,1.25.14.1-2.09,3.33Zm-3.55-.09,1.1-1.76a1.92,1.92,0,0,0,.26-1.78,3.15,3.15,0,0,0-1.36-1.5c-1.54-1-2.69-.85-3.44.36l-1.14,1.81Z" transform="translate(-7.8 -149.56)"/><path d="M65.55,419.63l-3,4.83L66.59,427l3.59-5.72,2.58,1.62-5.54,8.82L51.86,422.1l5.52-8.8L60,414.92l-3.58,5.7L60,422.9l3-4.84Z" transform="translate(-7.8 -149.56)"/><path d="M73.92,412.12a2.24,2.24,0,0,0-1.72-.41,6.58,6.58,0,0,0-2.1,1.12,9.61,9.61,0,0,1-4.13,2,4.85,4.85,0,0,1-3.42-.73,4.58,4.58,0,0,1-2.25-3.33,6.13,6.13,0,0,1,1-4.24,6.19,6.19,0,0,1,2.17-2.15,4.94,4.94,0,0,1,2.76-.64,5.86,5.86,0,0,1,2.84,1l-1.94,3.09a3,3,0,0,0-1.93-.57,1.91,1.91,0,0,0-1.4,1,2,2,0,0,0-.31,1.57,2.14,2.14,0,0,0,1,1.26,1.83,1.83,0,0,0,1.46.21,7,7,0,0,0,2.19-1.12,9.13,9.13,0,0,1,4-2,5.27,5.27,0,0,1,3.64.87,4.69,4.69,0,0,1,2.34,3.24,5.94,5.94,0,0,1-1,4.18,7,7,0,0,1-2.32,2.33,5.46,5.46,0,0,1-2.95.82,6,6,0,0,1-3.12-1l2-3.11a3.47,3.47,0,0,0,2.26.69,2.5,2.5,0,0,0,1.66-1.31A1.75,1.75,0,0,0,73.92,412.12Z" transform="translate(-7.8 -149.56)"/><path d="M83.23,406.23l-2,3.1-15.36-9.64,2-3.1Z" transform="translate(-7.8 -149.56)"/><path d="M84.91,394.6a2.28,2.28,0,0,0-1.72-.41,6.66,6.66,0,0,0-2.09,1.12,9.56,9.56,0,0,1-4.14,2,4.9,4.9,0,0,1-3.42-.73,4.62,4.62,0,0,1-2.25-3.34,6.76,6.76,0,0,1,3.2-6.38,4.92,4.92,0,0,1,2.75-.65,6,6,0,0,1,2.84,1l-1.94,3.09a3,3,0,0,0-1.93-.57,1.88,1.88,0,0,0-1.39,1,2,2,0,0,0-.32,1.56,2.13,2.13,0,0,0,1,1.27,1.91,1.91,0,0,0,1.46.21,6.88,6.88,0,0,0,2.19-1.13,9.1,9.1,0,0,1,4-2,5.25,5.25,0,0,1,3.65.87,4.71,4.71,0,0,1,2.33,3.24,5.94,5.94,0,0,1-1.05,4.18,7.15,7.15,0,0,1-2.31,2.33,5.42,5.42,0,0,1-3,.81,5.9,5.9,0,0,1-3.12-1l2-3.12a3.48,3.48,0,0,0,2.26.7,2.5,2.5,0,0,0,1.66-1.31A1.76,1.76,0,0,0,84.91,394.6Z" transform="translate(-7.8 -149.56)"/><path d="M85.66,374l-2.39,3.8,12.78,8-2,3.12-12.78-8L79,384.63,76.39,383l6.68-10.65Z" transform="translate(-7.8 -149.56)"/><path d="M667.28,476.26l-.45.36.91,1.52-.58.47-.9-1.53-.61.49-.46-.57.69-.55-.62-1.05-.62.5-.47-.58.7-.57-.91-1.54.58-.46.91,1.54.45-.36-.92-1.55.58-.46.91,1.54.6-.48.46.58-.67.54.62,1,.6-.49.46.57-.68.56.9,1.52-.58.47Zm-.83-.28.45-.36-.62-1.05-.45.36Z" transform="translate(-7.8 -149.56)"/><path d="M670.51,473l-.49.39,1.43,1.76-1,.79-3.91-4.82,1.55-1.26a2.1,2.1,0,0,1,1.44-.54,2.13,2.13,0,0,1,1.66,2.67l2.45,1.29,0,.05-1,.84Zm-1.14-.42.55-.45a.66.66,0,0,0,.28-.55,1.07,1.07,0,0,0-.28-.63c-.39-.49-.77-.57-1.15-.27l-.57.46Z" transform="translate(-7.8 -149.56)"/><path d="M675,468.78,673.51,470l1,1.28,1.79-1.46.65.81-2.76,2.24-3.91-4.82,2.76-2.24.66.82L672,468.08l.92,1.14,1.52-1.23Z" transform="translate(-7.8 -149.56)"/><path d="M678.57,467.27a.8.8,0,0,0-.51-.32,2.4,2.4,0,0,0-.81.13,3.18,3.18,0,0,1-1.56.2,1.7,1.7,0,0,1-1-.61,1.64,1.64,0,0,1-.36-1.33,2.13,2.13,0,0,1,.8-1.26,2.08,2.08,0,0,1,.95-.45,1.58,1.58,0,0,1,1,.09,2,2,0,0,1,.81.62l-1,.79a1,1,0,0,0-.56-.4.64.64,0,0,0-.56.16.66.66,0,0,0-.27.47.72.72,0,0,0,.18.52.67.67,0,0,0,.45.24,2.31,2.31,0,0,0,.84-.13,3,3,0,0,1,1.53-.2,1.78,1.78,0,0,1,1.08.68,1.63,1.63,0,0,1,.4,1.31,2.11,2.11,0,0,1-.8,1.24,2.37,2.37,0,0,1-1,.49,1.87,1.87,0,0,1-1-.06,2,2,0,0,1-.9-.67l1-.79a1.18,1.18,0,0,0,.65.48.87.87,0,0,0,.68-.24A.61.61,0,0,0,678.57,467.27Z" transform="translate(-7.8 -149.56)"/><path d="M682.23,466.4l-1,.79-3.9-4.82,1-.79Z" transform="translate(-7.8 -149.56)"/><path d="M684.06,462.82a.78.78,0,0,0-.51-.32,2.12,2.12,0,0,0-.8.13,3.3,3.3,0,0,1-1.56.2,1.64,1.64,0,0,1-1-.62,1.54,1.54,0,0,1-.36-1.32,2.13,2.13,0,0,1,.8-1.26,2.23,2.23,0,0,1,.94-.46,1.69,1.69,0,0,1,1,.1,2,2,0,0,1,.81.62l-1,.79a1,1,0,0,0-.56-.4.64.64,0,0,0-.56.16.69.69,0,0,0-.28.47.73.73,0,0,0,.19.52.62.62,0,0,0,.45.23,2.2,2.2,0,0,0,.83-.12,3,3,0,0,1,1.53-.2A1.77,1.77,0,0,1,685,462a1.59,1.59,0,0,1,.39,1.31,2,2,0,0,1-.8,1.24,2.4,2.4,0,0,1-1,.49,1.87,1.87,0,0,1-1-.06,2,2,0,0,1-.9-.67l1-.79a1.18,1.18,0,0,0,.65.48.88.88,0,0,0,.68-.25A.59.59,0,0,0,684.06,462.82Z" transform="translate(-7.8 -149.56)"/><path d="M686.59,456.23l-1.19,1,3.25,4-1,.79-3.25-4-1.17.95-.66-.82,3.34-2.7Z" transform="translate(-7.8 -149.56)"/><path d="M825.74,472.69l-.35-.44-1.48.85-.44-.56,1.48-.85-.46-.6.56-.43.52.67,1-.58-.48-.61.57-.44.54.69,1.5-.86.44.56-1.5.86.34.44,1.51-.86.44.57-1.51.86.46.58-.57.44-.52-.66-1,.58.46.59-.56.44-.52-.67-1.49.84-.44-.56Zm.28-.79.34.43,1-.58-.34-.44Z" transform="translate(-7.8 -149.56)"/><path d="M828.85,475.86l-.37-.47-1.72,1.35-.75-1,4.72-3.69,1.19,1.52a2,2,0,0,1,.5,1.4,2,2,0,0,1-2.6,1.56l-1.29,2.34,0,0-.81-1Zm.43-1.09.42.54a.66.66,0,0,0,.53.28,1.1,1.1,0,0,0,.62-.26q.71-.56.27-1.11l-.43-.56Z" transform="translate(-7.8 -149.56)"/><path d="M832.84,480.3l-1.16-1.49-1.25,1,1.37,1.76-.79.62-2.12-2.72,4.72-3.7,2.12,2.71-.79.62-1.38-1.75-1.11.87,1.16,1.49Z" transform="translate(-7.8 -149.56)"/><path d="M834.24,483.75a.74.74,0,0,0,.32-.49,2.1,2.1,0,0,0-.11-.78,3.16,3.16,0,0,1-.17-1.51,1.63,1.63,0,0,1,.61-1,1.5,1.5,0,0,1,1.29-.32,2.08,2.08,0,0,1,1.21.79,2.19,2.19,0,0,1,.42.92,1.57,1.57,0,0,1-.11.93,2.06,2.06,0,0,1-.61.78l-.75-.95a1.11,1.11,0,0,0,.4-.54.62.62,0,0,0-.15-.54.66.66,0,0,0-.45-.28.75.75,0,0,0-.51.17.63.63,0,0,0-.23.43,2.25,2.25,0,0,0,.11.81,3,3,0,0,1,.17,1.49,1.76,1.76,0,0,1-.68,1,1.52,1.52,0,0,1-1.27.36,1.94,1.94,0,0,1-1.18-.79,2.34,2.34,0,0,1-.47-1,1.82,1.82,0,0,1,.08-1,1.93,1.93,0,0,1,.66-.86l.75,1a1.15,1.15,0,0,0-.47.62.81.81,0,0,0,.22.66A.58.58,0,0,0,834.24,483.75Z" transform="translate(-7.8 -149.56)"/><path d="M835,487.31l-.75-1,4.73-3.69.74.95Z" transform="translate(-7.8 -149.56)"/><path d="M838.46,489.14a.79.79,0,0,0,.32-.49,2.34,2.34,0,0,0-.11-.78,3.08,3.08,0,0,1-.17-1.52,1.59,1.59,0,0,1,.61-1,1.54,1.54,0,0,1,1.29-.33,2.28,2.28,0,0,1,1.63,1.72,1.65,1.65,0,0,1-.11.93,2,2,0,0,1-.62.77l-.74-.95A1,1,0,0,0,841,487a.64.64,0,0,0-.14-.55.68.68,0,0,0-.46-.27.67.67,0,0,0-.5.17.61.61,0,0,0-.23.43,2.19,2.19,0,0,0,.1.81,3,3,0,0,1,.18,1.48,1.75,1.75,0,0,1-.68,1,1.56,1.56,0,0,1-1.27.36,2,2,0,0,1-1.19-.79,2.37,2.37,0,0,1-.46-1,1.77,1.77,0,0,1,.08-1,2,2,0,0,1,.66-.86l.75,1a1.12,1.12,0,0,0-.47.63.81.81,0,0,0,.22.66A.58.58,0,0,0,838.46,489.14Z" transform="translate(-7.8 -149.56)"/><path d="M844.79,491.68l-.91-1.16L840,493.59l-.75-1,3.93-3.07-.9-1.15.79-.62,2.57,3.27Z" transform="translate(-7.8 -149.56)"/><path d="M760.13,513.52h-.38l-.16,1.14h-.49l.17-1.14h-.51V513h.58l.12-.79h-.52v-.48h.59l.17-1.16h.48l-.17,1.16h.37l.17-1.16H761l-.17,1.16h.5v.48h-.57l-.12.79h.51v.48h-.58l-.16,1.14H760Zm-.31-.48h.38l.11-.79h-.37Z" transform="translate(-7.8 -149.56)"/><path d="M763.11,513.18h-.41v1.48h-.82v-4h1.31a1.35,1.35,0,0,1,.95.32,1.21,1.21,0,0,1,.33.91,1.16,1.16,0,0,1-.58,1.12l.7,1.66v0h-.87Zm-.41-.68h.47a.41.41,0,0,0,.36-.16.74.74,0,0,0,.13-.44c0-.4-.16-.61-.48-.61h-.48Z" transform="translate(-7.8 -149.56)"/><path d="M767.12,512.91h-1.27V514h1.51v.68H765v-4h2.32v.68h-1.5v1h1.27Z" transform="translate(-7.8 -149.56)"/><path d="M769.53,513.6a.54.54,0,0,0-.12-.38A1.65,1.65,0,0,0,769,513a2.08,2.08,0,0,1-.88-.54,1.07,1.07,0,0,1-.26-.73,1,1,0,0,1,.36-.82,1.35,1.35,0,0,1,.92-.31,1.29,1.29,0,0,1,.66.16,1,1,0,0,1,.45.44,1.28,1.28,0,0,1,.16.65h-.82a.67.67,0,0,0-.12-.43.41.41,0,0,0-.35-.15.45.45,0,0,0-.33.12.49.49,0,0,0-.12.34.43.43,0,0,0,.14.31,1.43,1.43,0,0,0,.47.28,2,2,0,0,1,.86.52,1.17,1.17,0,0,1,.27.79,1.08,1.08,0,0,1-.34.83,1.31,1.31,0,0,1-.91.29,1.55,1.55,0,0,1-.72-.16,1.17,1.17,0,0,1-.5-.46,1.34,1.34,0,0,1-.19-.71h.82a.76.76,0,0,0,.14.51.55.55,0,0,0,.45.16Q769.53,514.05,769.53,513.6Z" transform="translate(-7.8 -149.56)"/><path d="M771.75,514.66h-.82v-4h.82Z" transform="translate(-7.8 -149.56)"/><path d="M774.15,513.6a.54.54,0,0,0-.13-.38,1.65,1.65,0,0,0-.46-.26,2.08,2.08,0,0,1-.88-.54,1.12,1.12,0,0,1-.26-.73,1,1,0,0,1,.36-.82,1.35,1.35,0,0,1,.92-.31,1.29,1.29,0,0,1,.66.16,1,1,0,0,1,.45.44,1.28,1.28,0,0,1,.16.65h-.81a.61.61,0,0,0-.13-.43.41.41,0,0,0-.34-.15.45.45,0,0,0-.34.12.49.49,0,0,0-.12.34.43.43,0,0,0,.14.31,1.55,1.55,0,0,0,.47.28,2,2,0,0,1,.86.52,1.17,1.17,0,0,1,.27.79,1,1,0,0,1-.34.83,1.31,1.31,0,0,1-.91.29,1.58,1.58,0,0,1-.72-.16,1.17,1.17,0,0,1-.5-.46,1.34,1.34,0,0,1-.18-.71h.82a.76.76,0,0,0,.13.51.55.55,0,0,0,.45.16A.39.39,0,0,0,774.15,513.6Z" transform="translate(-7.8 -149.56)"/><path d="M778.13,511.29h-1v3.37h-.82v-3.37h-1v-.68h2.8Z" transform="translate(-7.8 -149.56)"/></g></svg>