<svg xmlns="http://www.w3.org/2000/svg" viewBox="0 0 337.01 233.46"><defs><style>.a{fill:#f2f2f2;}.b{fill:#b2b2b2;}.c{fill:#333;}.d{fill:#00abff;}.e{fill:#544f4f;}.f{fill:#f3ecec;}.g{fill:#f4f8f1;}.h{fill:#f1eded;}.i{fill:#c6c6c6;}.j{font-size:42.96px;}.j,.l,.m{font-family:RobotoCondensed-Bold, Roboto Condensed;font-weight:700;}.k{letter-spacing:-0.03em;}.l{font-size:47px;}.m{font-size:29px;}</style></defs><title>20180301_MoveOn_ErrorPageGraphics_final</title><path class="a" d="M258.3,231.94c-5.77-.27-11.48-.7-17.07-1.37a45.76,45.76,0,0,1-6.39-1.12,5,5,0,0,1-1.92-.82c-2.42-2.09,4.11-4.44,7.15-4.91,4.28-.65,9-.41,13.38-.54,13.63-.4,27.32-.39,41,0,6.11.19,12.49.42,18.68.83,5.62.36,13.13.43,17.54,2.58l.46.24c.87.48,1.46,1.14,1.22,1.78a3.31,3.31,0,0,1-1.75,1.33c-5.27,2.39-11.94,2.72-18.76,2.86-8.78.18-17.62-.24-26.39-.32C276.4,232.44,267.33,232.37,258.3,231.94Z" transform="translate(-9.38 0.57)"/><path class="a" d="M50.69,228.84c-9.2-.28-18.3-.71-27.21-1.39-3.5-.26-7-.59-10.2-1.13a11.33,11.33,0,0,1-3.06-.82c-3.86-2.09,6.55-4.44,11.4-4.9,6.83-.65,14.27-.41,21.34-.53,21.72-.37,43.56-.35,65.35.11,9.74.2,19.91.44,29.78.85,9,.38,20.94.45,28,2.61.25.07.49.15.73.24,1.39.47,2.32,1.14,1.94,1.78s-1.53,1-2.79,1.32c-8.4,2.39-19,2.71-29.89,2.84-14,.17-28.11-.26-42.08-.36C79.55,229.37,65.1,229.29,50.69,228.84Z" transform="translate(-9.38 0.57)"/><path d="M315.54,198.75c2.92,3.16-.38,13.48-1.6,16.28a20.53,20.53,0,0,1-18.66,12.66c-1,0-9.73,1-10.25-.37-.44-1.17,2.58-2.42,3.37-3,2.1-1.45,4.73-3,5.71-5.51,2.39-6.08-1.59-14.15,3.71-19.11,4.27-4,10.94-2.81,16.14-1.83A2.78,2.78,0,0,1,315.54,198.75Z" transform="translate(-9.38 0.57)"/><path d="M246.68,198.75c-2.93,3.16.37,13.48,1.59,16.28a20.55,20.55,0,0,0,18.67,12.66c1,0,9.72,1,10.25-.37.44-1.17-2.58-2.42-3.38-3-2.09-1.45-4.73-3-5.71-5.51-2.39-6.08,1.59-14.15-3.7-19.11-4.28-4-10.94-2.81-16.14-1.83A2.78,2.78,0,0,0,246.68,198.75Z" transform="translate(-9.38 0.57)"/><path d="M303.6,63.16a5.52,5.52,0,1,0,5.52-5.52A5.52,5.52,0,0,0,303.6,63.16Z" transform="translate(-9.38 0.57)"/><path class="b" d="M304.5,65.47a2.31,2.31,0,1,0,2.31-2.31A2.31,2.31,0,0,0,304.5,65.47Z" transform="translate(-9.38 0.57)"/><path d="M264.82,63.82a5.52,5.52,0,1,1-5.52-5.52A5.52,5.52,0,0,1,264.82,63.82Z" transform="translate(-9.38 0.57)"/><path class="b" d="M263.92,66.13a2.31,2.31,0,1,1-2.31-2.31A2.31,2.31,0,0,1,263.92,66.13Z" transform="translate(-9.38 0.57)"/><path class="c" d="M226.91,145.89c1.13-10.4,4.75-20.24,8.84-29.8,4.19-9.77,7.41-20.42,11.94-29.91a59.14,59.14,0,0,1,9.1-13.87c7-7.84,18.22-11.49,28.93-11.62,17-.21,27.83,10.26,33.79,25.33,3.36,8.49,5.47,17,9.21,25.35a130.78,130.78,0,0,1,9.78,34.52c5.59,36.88-20.41,64.89-55.78,65.32-18.35.23-35.25-3.59-45.52-18.65C227.64,178.54,225.12,162.22,226.91,145.89Z" transform="translate(-9.38 0.57)"/><path class="b" d="M272.09,95.78c-1.3,8.4,3.86,11.68,10.73,11.68s12-3.28,10.72-11.68S287.44,81,282.82,81,273.39,87.37,272.09,95.78Z" transform="translate(-9.38 0.57)"/><path d="M287.68,103.29c2.4-4,.57-7.27-4.05-7.36l-1.47,0c-4.62-.1-6.57,3.14-4.34,7.19l.7,1.28c2.23,4,6,4.13,8.4.18Z" transform="translate(-9.38 0.57)"/><path d="M283.64,106.7a6.29,6.29,0,0,0,8.51,2.06.5.5,0,0,1,.51.87,7.32,7.32,0,0,1-9.88-2.42c-.36-.54.51-1,.86-.51Z" transform="translate(-9.38 0.57)"/><path d="M280.91,106.7a6.29,6.29,0,0,1-8.51,2.06.5.5,0,0,0-.5.87,7.32,7.32,0,0,0,9.88-2.42c.36-.54-.51-1-.87-.51Z" transform="translate(-9.38 0.57)"/><circle class="b" cx="306.84" cy="99.32" r="3.28" transform="translate(-23.61 69.39) rotate(-12.51)"/><path class="b" d="M258.23,99.32A3.28,3.28,0,1,0,261.51,96,3.28,3.28,0,0,0,258.23,99.32Z" transform="translate(-9.38 0.57)"/><rect class="d" x="168.39" y="118.52" width="178" height="70.48" transform="translate(505.4 308.08) rotate(-180)"/><path d="M327,128.7c-.46,7.17-.88,9.68,1.47,10.61s7.34-.68,7.91-10.3-6.65-15.9-8.87-14.81S327.49,121.53,327,128.7Z" transform="translate(-9.38 0.57)"/><path class="e" d="M331.16,137.66l-.24,3.63c0,.64-1.05.65-1,0l.24-3.63c0-.64,1-.64,1,0Z" transform="translate(-9.38 0.57)"/><path class="e" d="M329.4,137.89l-1.17,3.44c-.21.61-1.18.35-1-.27l1.17-3.44c.21-.61,1.18-.34,1,.27Z" transform="translate(-9.38 0.57)"/><path class="e" d="M328.28,137.07l-1.87,3.12a.5.5,0,0,1-.87-.51c.63-1,1.25-2.08,1.87-3.12.34-.55,1.21,0,.87.51Z" transform="translate(-9.38 0.57)"/><path class="b" d="M293.42,65.31a2.06,2.06,0,0,1-.49,1.35c-.41.51-1.11-.2-.71-.71a1,1,0,0,0,.19-.64.51.51,0,0,1,1,0Z" transform="translate(-9.38 0.57)"/><path class="b" d="M290.07,63.3a2.61,2.61,0,0,1-.25,1.26c-.25.59-1.12.08-.86-.51a1.59,1.59,0,0,0,.1-.75c0-.64,1-.64,1,0Z" transform="translate(-9.38 0.57)"/><path class="b" d="M289.24,67.62c-.05.39-.11.78-.17,1.17-.1.64-1.06.37-1-.26l.18-1.17c.09-.64,1.06-.37,1,.26Z" transform="translate(-9.38 0.57)"/><path class="b" d="M292.56,69.79l-.17.51c-.2.61-1.17.35-1-.27l.17-.5c.2-.61,1.17-.35,1,.26Z" transform="translate(-9.38 0.57)"/><path class="b" d="M285.22,63.81v1a.51.51,0,0,1-1,0v-1a.51.51,0,0,1,1,0Z" transform="translate(-9.38 0.57)"/><path class="b" d="M280.67,63.51a3.57,3.57,0,0,1,.2,1.3c0,.64-1,.65-1,0a2.82,2.82,0,0,0-.15-1c-.21-.61.76-.87,1-.26Z" transform="translate(-9.38 0.57)"/><path class="b" d="M284.85,69.53a1.54,1.54,0,0,1-.18,1.24c-.34.55-1.21,0-.87-.51a.48.48,0,0,0,.08-.46.5.5,0,0,1,1-.27Z" transform="translate(-9.38 0.57)"/><path class="b" d="M279,73.18v1.67a.5.5,0,0,1-1,0V73.18a.5.5,0,0,1,1,0Z" transform="translate(-9.38 0.57)"/><path class="b" d="M275.51,67.32v.84a.5.5,0,0,1-1,0v-.84a.5.5,0,0,1,1,0Z" transform="translate(-9.38 0.57)"/><path class="b" d="M271.81,66.35a3.83,3.83,0,0,1,.19,1.3c0,.65-1,.65-1,0a2.58,2.58,0,0,0-.15-1c-.21-.62.76-.88,1-.27Z" transform="translate(-9.38 0.57)"/><path class="b" d="M279.89,67.32l.17,1.33c.08.64-.92.64-1,0-.06-.44-.12-.89-.17-1.33-.08-.64.92-.64,1,0Z" transform="translate(-9.38 0.57)"/><path class="b" d="M276.47,64.6c-.06.28-.11.56-.17.84-.13.63-1.1.36-1-.27.06-.28.12-.56.17-.83.14-.64,1.1-.37,1,.26Z" transform="translate(-9.38 0.57)"/><path class="b" d="M298,66l-.18.84c-.13.63-1.1.36-1-.27l.18-.83c.13-.64,1.1-.37,1,.26Z" transform="translate(-9.38 0.57)"/><path class="b" d="M295.84,72.42a.33.33,0,0,0-.25.22c-.22.61-1.19.35-1-.26a1.36,1.36,0,0,1,.71-.83c.58-.27,1.09.6.51.87Z" transform="translate(-9.38 0.57)"/><path class="b" d="M287.56,74.85V75a.51.51,0,0,1-1,0v-.17a.51.51,0,0,1,1,0Z" transform="translate(-9.38 0.57)"/><path class="b" d="M282.54,76v1.17a.51.51,0,0,1-1,0V76a.51.51,0,0,1,1,0Z" transform="translate(-9.38 0.57)"/><path class="b" d="M272.84,71.36c.05.23.11.45.17.67a.5.5,0,0,1-1,.27l-.17-.67a.5.5,0,0,1,1-.27Z" transform="translate(-9.38 0.57)"/><path class="b" d="M301.23,67.32a1.42,1.42,0,0,1-.69,1.13c-.55.35-1.05-.52-.5-.87a.32.32,0,0,0,.19-.26c.07-.64,1.07-.64,1,0Z" transform="translate(-9.38 0.57)"/><path class="b" d="M267,68l.16.5c.21.62-.76.88-1,.27l-.17-.5c-.21-.62.76-.88,1-.27Z" transform="translate(-9.38 0.57)"/><circle cx="291.51" cy="89.31" r="1.93"/><circle class="f" cx="292.72" cy="88.75" r="0.54"/><circle cx="255.41" cy="89.31" r="1.93"/><path class="f" d="M265.46,88.19a.54.54,0,1,0,.54-.55A.54.54,0,0,0,265.46,88.19Z" transform="translate(-9.38 0.57)"/><path class="c" d="M160.18,141.67c7.92,2.65,10.85,3.23,10.37,6.88s-5.32,9.77-15.91,6.12-12.75-16.42-10.21-19S152.26,139,160.18,141.67Z" transform="translate(-9.38 0.57)"/><polygon class="c" points="160.28 148.75 163.13 145.61 158.92 145.13 160.28 148.75"/><polygon class="c" points="159.63 152.47 163.21 152.31 160.62 149.83 159.63 152.47"/><polygon class="c" points="155.31 155.7 159.33 156.35 156.95 153.04 155.31 155.7"/><path class="c" d="M97.06,109.88c.17-2.74-2.41-4-5.74-2.86L83,109.94c-3.33,1.17-3.47,3.4-.31,5l7.91,3.93c3.16,1.57,5.89.62,6.06-2.12Z" transform="translate(-9.38 0.57)"/><path class="c" d="M92.22,128.57c.17-2.73-2.41-4-5.75-2.85l-8.33,2.92c-3.33,1.16-3.47,3.4-.31,5l7.91,3.93c3.16,1.57,5.89.61,6.06-2.12Z" transform="translate(-9.38 0.57)"/><path class="c" d="M93.74,144.35c.15-2.53-2.06-3.7-4.92-2.61l-7.16,2.72c-2.86,1.09-3,3.16-.28,4.59l6.76,3.59c2.71,1.44,5,.54,5.2-2Z" transform="translate(-9.38 0.57)"/><path class="c" d="M93.16,163.35c.15-2.27-2.07-3.34-4.91-2.38l-7.12,2.41c-2.85,1-3,2.83-.26,4.13l6.77,3.28c2.7,1.31,5,.52,5.17-1.75Z" transform="translate(-9.38 0.57)"/><path class="c" d="M81.47,184.43c1.72-1.49.93-3.82-1.75-5.17L73,175.87c-2.69-1.35-4.09-.13-3.13,2.72l2.41,7.12c1,2.85,3.16,3.95,4.88,2.46Z" transform="translate(-9.38 0.57)"/><path class="c" d="M67.76,194.78c1.87-1,1.81-3-.14-4.32l-4.89-3.39c-1.95-1.36-3.48-.53-3.4,1.85l.19,6c.08,2.37,1.67,3.48,3.55,2.46Z" transform="translate(-9.38 0.57)"/><path class="c" d="M53.18,201.83c1.41-.77,1.32-2.31-.2-3.43l-3.82-2.8c-1.52-1.12-2.68-.49-2.57,1.4l.27,4.72c.11,1.89,1.36,2.81,2.77,2Z" transform="translate(-9.38 0.57)"/><path class="c" d="M40.44,208.64c1.55-.44,1.8-2,.56-3.39l-3.11-3.57c-1.24-1.42-2.51-1.06-2.82.8l-.76,4.67c-.31,1.87.71,3,2.25,2.6Z" transform="translate(-9.38 0.57)"/><path class="c" d="M133.75,197.12c-.46-2.46-2.05-4.83-5.23-6.94-3-2-7.54-2.09-11.1-1-6.73,2.13-6.38,9.21-6.11,13.56.42,7,.43,12.94,4.26,19.54,0,0,3.11,5.37,12.57,5.41,2.49,0,6.2-.5,3.39-3.19-2.2-2.11-4.41-1.56-6.33-4-2.36-3-.8-7.35,1.46-9.38C131.1,207.16,134.65,202,133.75,197.12Z" transform="translate(-9.38 0.57)"/><polygon class="b" points="116.81 100.99 121.24 95.57 125.88 100.61 130.45 95.37 134.98 100.58 139.66 95.51 144.07 100.87 148.86 95.98 153.15 101.53 158.05 96.84 162.2 102.59 167.24 98.16 170.53 102.18 116.81 100.99"/><polygon class="b" points="174.51 91.06 170.08 96.47 165.44 91.44 160.87 96.67 156.34 91.47 151.67 96.54 147.25 91.17 142.47 96.06 138.17 90.52 133.27 95.2 129.13 89.46 124.09 93.88 120.79 89.86 174.51 91.06"/><polygon class="g" points="170.61 88.89 166.17 94.31 161.54 89.27 156.96 94.5 152.44 89.3 147.76 94.37 143.34 89 138.56 93.89 134.26 88.35 129.36 93.03 125.22 87.29 120.18 91.71 116.89 87.69 170.61 88.89"/><path class="c" d="M186.1,78c-.42-.72-3.83-2.41-20.77-3.58S121.26,67,119,65.33,122.78,54,112.94,53c0,0-6,.06-7.19,3,0,0-7.36,8.74-9.68,9.36s-7.38,1.4-6.46,25.51-1.8,90.57-.07,99.24c4.62,23.16,46.16,22.51,54.47,4.63a81.17,81.17,0,0,0,7-37.14c-.23-5.94-.8-12.13-2.77-17.77s-5.12-10.88-6.82-16.67c-1.34-4.56-2.53-10.86-.45-15.46,0,0,27.08-2.79,38-4.65,1.15-.2,2-4.76,2-4.76-6.41,1.13-12.9,1.88-19.39,2.42a144.67,144.67,0,0,1-16.26.54c-3.65-.11-19,0-15.37-7.86,0,0,37,4.5,54.67-2.57C184.59,90.83,188.29,81.76,186.1,78Z" transform="translate(-9.38 0.57)"/><path class="b" d="M113,167.71c1.11-15.68,10.6-41.75,28.77-43.84,1.72,5.61,4.75,10.71,6.68,16.24s2.54,11.83,2.76,17.78a81.12,81.12,0,0,1-7,37.13c-2.37,5.09-7.41,8.78-13.54,10.92C118.19,198.79,111.94,182.6,113,167.71Z" transform="translate(-9.38 0.57)"/><ellipse class="c" cx="97.64" cy="68.5" rx="7.67" ry="7.51" transform="translate(17.01 164.72) rotate(-88.37)"/><ellipse class="c" cx="112.77" cy="58.85" rx="7.23" ry="7.33" transform="translate(41.37 170.47) rotate(-88.37)"/><path class="c" d="M118.54,199.18c-.46-2.45-2.05-4.83-5.24-6.93-3-2-7.53-2.09-11.09-1-6.73,2.12-6.38,9.2-6.11,13.56.42,7,.43,12.94,4.26,19.54,0,0,3.11,5.37,12.57,5.41,2.49,0,6.2-.51,3.39-3.2-2.2-2.11-4.41-1.55-6.33-4-2.36-3-.8-7.35,1.46-9.39C115.89,209.23,119.44,204.05,118.54,199.18Z" transform="translate(-9.38 0.57)"/><path class="c" d="M89.11,167.87S61.7,204,11.62,214.3c0,0,31.81,10.77,78.65-6.71S89.11,167.87,89.11,167.87Z" transform="translate(-9.38 0.57)"/><path class="h" d="M111,58.3a3.72,3.72,0,1,0,4.32-3.39A3.89,3.89,0,0,0,111,58.3Z" transform="translate(-9.38 0.57)"/><path d="M113.06,57.74a1.72,1.72,0,1,0,2-1.42A1.73,1.73,0,0,0,113.06,57.74Z" transform="translate(-9.38 0.57)"/><path class="h" d="M93.94,68.39a3.72,3.72,0,1,0,3.82-3.93A3.88,3.88,0,0,0,93.94,68.39Z" transform="translate(-9.38 0.57)"/><path d="M96,67.56a1.72,1.72,0,1,0,1.77-1.67A1.71,1.71,0,0,0,96,67.56Z" transform="translate(-9.38 0.57)"/><path class="c" d="M178.78,73.79a3.69,3.69,0,0,0,7.36,0,3.69,3.69,0,1,0-7.36,0Z" transform="translate(-9.38 0.57)"/><path d="M181.08,73.21a1.43,1.43,0,1,0,1.38-1.82A1.64,1.64,0,0,0,181.08,73.21Z" transform="translate(-9.38 0.57)"/><path class="c" d="M170.75,77.33a3.7,3.7,0,0,0,7.36.21,3.69,3.69,0,1,0-7.36-.21Z" transform="translate(-9.38 0.57)"/><path d="M173.07,76.81c0,1,.57,1.84,1.33,1.86s1.4-.78,1.42-1.78a1.43,1.43,0,1,0-2.75-.08Z" transform="translate(-9.38 0.57)"/><path class="b" d="M108.94,91.32a4.66,4.66,0,1,0,4.79-4.52A4.65,4.65,0,0,0,108.94,91.32Z" transform="translate(-9.38 0.57)"/><path class="i" d="M133.75,140a46.12,46.12,0,0,0,14-1.78c-.45-1.14-.94-2.27-1.45-3.4a42,42,0,0,1-21.67.2c-.77,1-1.49,2.1-2.18,3.21A45.72,45.72,0,0,0,133.75,140Zm-20.54,36.52c.17,1.42.4,2.84.69,4.24a45.22,45.22,0,0,0,14.67,2.9,45.87,45.87,0,0,0,20.85-4.38c.32-1.51.59-3,.83-4.54A41.93,41.93,0,0,1,113.21,176.51Zm5.05,16.27a38.51,38.51,0,0,0,2.76,4.38,44.71,44.71,0,0,0,22.87-1.54c.11-.2.21-.4.31-.6.61-1.32,1.18-2.67,1.71-4a42.6,42.6,0,0,1-6.26,2.1A41.56,41.56,0,0,1,118.26,192.78Zm19.51-38.45a45.87,45.87,0,0,0,13-2.88c-.13-1.26-.3-2.51-.5-3.76a41.86,41.86,0,0,1-32.42-.36c-.46,1.15-.89,2.3-1.28,3.45a45.44,45.44,0,0,0,21.19,3.55Zm1.77,12.81a46.18,46.18,0,0,0,11.69-3.27c0-1.35,0-2.69,0-4A42,42,0,0,1,139,163.5a41.47,41.47,0,0,1-24.81-4.18c-.28,1.28-.51,2.54-.7,3.76a44.87,44.87,0,0,0,18.34,4.48A47.28,47.28,0,0,0,139.54,167.14Z" transform="translate(-9.38 0.57)"/><path class="b" d="M102.09,63.91c.4.41.81.81,1.22,1.22a.46.46,0,0,0,.65-.65l-1.22-1.22a.46.46,0,0,0-.65.65Z" transform="translate(-9.38 0.57)"/><path class="b" d="M104.07,61.75a1.32,1.32,0,0,0,1.39,1.33c.59,0,.59-.95,0-.92a.4.4,0,0,1-.47-.41.46.46,0,0,0-.92,0Z" transform="translate(-9.38 0.57)"/><path class="b" d="M105.23,59.42l.61.3c.53.26,1-.53.46-.79l-.61-.3c-.53-.26-1,.53-.46.79Z" transform="translate(-9.38 0.57)"/><path class="b" d="M106.23,67a1.26,1.26,0,0,0,1,1.35.46.46,0,0,0,.25-.88.37.37,0,0,1-.28-.47c.07-.59-.84-.58-.92,0Z" transform="translate(-9.38 0.57)"/><path class="b" d="M108.71,64.85a1,1,0,0,0,.62,1.56c.57.12.82-.76.24-.89-.13,0-.14-.11-.07-.21.34-.48-.45-.94-.79-.46Z" transform="translate(-9.38 0.57)"/><path class="b" d="M106.58,61.64a1.21,1.21,0,0,0,.49,1.43c.48.34.94-.45.46-.79-.14-.11-.12-.25-.06-.4.21-.55-.68-.79-.89-.24Z" transform="translate(-9.38 0.57)"/><path class="b" d="M92,99.65a1.53,1.53,0,0,0,0,2.17c.41.42,1.06-.23.65-.65a.6.6,0,0,1,0-.87c.41-.42-.24-1.07-.65-.65Z" transform="translate(-9.38 0.57)"/><path class="b" d="M91.56,111.59v3.06a.46.46,0,0,0,.91,0v-3.06a.46.46,0,0,0-.91,0Z" transform="translate(-9.38 0.57)"/><path class="b" d="M96.77,106.12a2.29,2.29,0,0,0-.29,1.92.46.46,0,0,0,.89-.25,1.35,1.35,0,0,1,.19-1.2c.33-.5-.46-1-.79-.47Z" transform="translate(-9.38 0.57)"/><path class="b" d="M91.86,106.7v.91a.46.46,0,0,0,.92,0v-.91a.46.46,0,0,0-.92,0Z" transform="translate(-9.38 0.57)"/><path class="b" d="M98.49,117.55a7.33,7.33,0,0,0-.17,3c.09.58,1,.34.89-.24a6,6,0,0,1,.17-2.54.46.46,0,0,0-.89-.24Z" transform="translate(-9.38 0.57)"/><path class="b" d="M93.39,123.51v2.14a.46.46,0,0,0,.92,0v-2.14a.46.46,0,0,0-.92,0Z" transform="translate(-9.38 0.57)"/><path class="b" d="M97.4,127.07a7.91,7.91,0,0,0-.34,2.56.46.46,0,0,0,.91,0,7.55,7.55,0,0,1,.31-2.32c.18-.57-.71-.81-.88-.24Z" transform="translate(-9.38 0.57)"/><path class="b" d="M92.34,139a10.61,10.61,0,0,0,.24,4.52.46.46,0,0,0,.88-.24,9.51,9.51,0,0,1-.23-4c.09-.58-.8-.82-.89-.24Z" transform="translate(-9.38 0.57)"/><path class="b" d="M97.36,137.92a3.22,3.22,0,0,0-.26,2.22c.13.57,1,.33.88-.24a2.22,2.22,0,0,1,.17-1.52c.26-.52-.53-1-.79-.46Z" transform="translate(-9.38 0.57)"/><path class="b" d="M101.39,132.45a4.28,4.28,0,0,0-.33,2.5c.1.58,1,.33.89-.25a3.14,3.14,0,0,1,.23-1.79c.24-.53-.55-1-.79-.46Z" transform="translate(-9.38 0.57)"/><path class="b" d="M92.47,133v1.22a.46.46,0,0,0,.92,0V133a.46.46,0,0,0-.92,0Z" transform="translate(-9.38 0.57)"/><path class="b" d="M90,149.5a6.87,6.87,0,0,0,.32,2.88c.19.55,1.07.31.88-.25A6.32,6.32,0,0,1,91,149.5c.06-.58-.85-.58-.92,0Z" transform="translate(-9.38 0.57)"/><path class="b" d="M94.3,148.89a4.73,4.73,0,0,0,.69,2.67.46.46,0,0,0,.79-.46,3.88,3.88,0,0,1-.56-2.21c0-.59-.89-.59-.92,0Z" transform="translate(-9.38 0.57)"/><path class="b" d="M99.23,145.1a3.23,3.23,0,0,0,.32,2.2c.28.52,1.07.06.79-.46a2.27,2.27,0,0,1-.22-1.49c.11-.58-.77-.83-.89-.25Z" transform="translate(-9.38 0.57)"/><path class="b" d="M103.22,142.05a3.06,3.06,0,0,0,.29,2.2c.28.52,1.08.05.79-.46a2.11,2.11,0,0,1-.2-1.5c.14-.57-.75-.82-.88-.24Z" transform="translate(-9.38 0.57)"/><path class="b" d="M102.26,153.17v1.53a.46.46,0,0,0,.92,0v-1.53a.46.46,0,0,0-.92,0Z" transform="translate(-9.38 0.57)"/><path class="b" d="M97.67,158.37v.92a.46.46,0,0,0,.92,0v-.92a.46.46,0,0,0-.92,0Z" transform="translate(-9.38 0.57)"/><path class="b" d="M93.09,159.29v1.52a.46.46,0,0,0,.91,0v-1.52a.46.46,0,0,0-.91,0Z" transform="translate(-9.38 0.57)"/><path class="b" d="M91.86,167.24v.91a.46.46,0,0,0,.92,0v-.91a.46.46,0,0,0-.92,0Z" transform="translate(-9.38 0.57)"/><path class="b" d="M98.38,164.43a1.69,1.69,0,0,0-.36,1.69c.19.56,1.08.32.89-.24a.75.75,0,0,1,.12-.8c.39-.44-.26-1.09-.65-.65Z" transform="translate(-9.38 0.57)"/><path class="c" d="M121.55,161c5.23,6.5,7.39,8.57,5,11.38s-9.75,5.35-16.7-3.43-1.88-20.7,1.65-21.48S116.31,154.48,121.55,161Z" transform="translate(-9.38 0.57)"/><polygon class="c" points="116.64 172.96 120.73 171.84 117.44 169.16 116.64 172.96"/><polygon class="c" points="114.08 174.93 117.19 176.73 116.34 173.24 114.08 174.93"/><polygon class="c" points="109.45 174.38 110.83 178.21 112.58 174.53 109.45 174.38"/><text class="j" transform="translate(323.39 141.23) rotate(180)">#RESIS<tspan class="k" x="125.55" y="0">T</tspan></text><text class="l" transform="matrix(0.98, -0.2, 0.2, 0.98, 85.38, 43.55)">?</text><text class="m" transform="translate(112.03 51.1) rotate(2.45)">?</text></svg>