<svg xmlns="http://www.w3.org/2000/svg" viewBox="0 0 179.88 85.93"><defs><style>.a{fill:#fff;}.b{fill:#00abff;}.c{mask:url(#a);}.d{mask:url(#c);}</style><mask id="a" x="0" y="0.22" width="179.87" height="85.67" maskUnits="userSpaceOnUse"><path class="a" d="M0,85.89H179.87V.22H0Z"/></mask><mask id="c" x="0" y="0.22" width="179.87" height="85.71" maskUnits="userSpaceOnUse"><path class="a" d="M0,85.89H179.87V.22H0Z"/></mask></defs><path class="b" d="M115.87,64h64V0h-64Z"/><path d="M128.66,29.49a12.26,12.26,0,0,1,1.22-6,4.16,4.16,0,0,1,7,.07c.79,1.34,1.18,3.45,1.18,6.27v5.59c0,2.65-.41,4.62-1.19,5.85A3.75,3.75,0,0,1,133.4,43a3.86,3.86,0,0,1-3.54-1.81c-.79-1.27-1.2-3.29-1.2-6V29.49Zm4.69-14.11a10.83,10.83,0,0,0-8.82,3.87c-2.1,2.55-3.16,6.12-3.16,10.61v5.51c0,4.34,1.12,7.77,3.23,10.2a11.12,11.12,0,0,0,8.8,3.68,11,11,0,0,0,8.79-3.72c2.09-2.45,3.15-5.92,3.15-10.32v-5.5c0-4.49-1.12-8-3.23-10.53a10.9,10.9,0,0,0-8.76-3.8Zm39.84.44h-6.86V35.47l-8.74-19.41-.1-.24h-7.16v33h7.3V29.19l8.71,19.38.11.24h7.15v-33Z"/><g class="c"><path class="a" d="M61.1,79.73h61.79v-64H61.1Z"/></g><g class="c"><path d="M92.86,30.79H85.31l-.07.31-5,21.63-5-21.63-.07-.31h-8l.14.52,9.2,32.17.09.29h7.36l.08-.29,9.26-32.17.15-.52Zm23.3,26.78H104.61V49.85h10.11V43.8H104.61V37h11.92V30.79H97.32v33h19.25v-6.2Z"/></g><g class="d"><path class="a" d="M0,85.93H71.42v-64H0Z"/></g><g class="c"><path d="M36.23,37H27.44l-.08.3L21.71,59.06,16,37.29,16,37H6.77V70h7.3V60.86l-.45-10L19.1,69.68l.08.3h5l.08-.3,5.48-18.86-.44,10V70h7.31V37ZM49.91,62.38c-.79-1.26-1.2-3.28-1.2-6V50.65a12.32,12.32,0,0,1,1.22-6,4.16,4.16,0,0,1,7,.07A13,13,0,0,1,58.07,51v5.59a11.43,11.43,0,0,1-1.19,5.85,3.76,3.76,0,0,1-3.43,1.76,3.84,3.84,0,0,1-3.54-1.81m12.25-22a10.92,10.92,0,0,0-8.76-3.8,10.83,10.83,0,0,0-8.82,3.87C42.48,43,41.42,46.53,41.42,51v5.5c0,4.34,1.11,7.77,3.23,10.2a11.1,11.1,0,0,0,8.8,3.69,11,11,0,0,0,8.79-3.73c2.09-2.45,3.15-5.92,3.15-10.31V50.87c0-4.48-1.12-8-3.23-10.52"/></g></svg>
