<?xml version="1.0" encoding="utf-8"?>
<!-- Generator: Adobe Illustrator 23.0.3, SVG Export Plug-In . SVG Version: 6.00 Build 0)  -->
<svg version="1.1" id="Layer_1" xmlns="http://www.w3.org/2000/svg" xmlns:xlink="http://www.w3.org/1999/xlink" x="0px" y="0px"
	 viewBox="0 0 50 50" style="enable-background:new 0 0 50 50;" xml:space="preserve">
<style type="text/css">
	.st0{fill:#FFFFFF;}
</style>
<g id="surface1">
	<path d="M25,2C12.3,2,2,11.6,2,23.5c0,6.5,3.1,12.3,8,16.2v8.9l1.5-0.8l7.2-3.8c2,0.5,4.1,0.9,6.3,0.9
		c12.7,0,23-9.6,23-21.5S37.7,2,25,2z M25,4c11.6,0,21,8.8,21,19.5S36.6,43,25,43c-2.2,0-4.3-0.3-6.2-0.9L18.4,42l-0.3,0.2L12,45.4
		v-6.6l-0.4-0.3C7,34.9,4,29.5,4,23.5C4,12.8,13.4,4,25,4z M22.7,17.7l-12,12.8l10.8-6.1l5.8,6.2l11.9-12.9l-10.5,5.9L22.7,17.7z"/>
</g>
</svg>
