<svg version="1.1" id="whatsappwhite" xmlns="http://www.w3.org/2000/svg" xmlns:xlink="http://www.w3.org/1999/xlink" x="0px" y="0px"
	 viewBox="0 0 357.94 358.08" style="enable-background:new 0 0 357.94 358.08;" xml:space="preserve">
<g id="dorAHd_2_">
	<g>
		<path class="" d="M0,358.08c8.41-29.89,16.68-59.28,25-88.82C14.51,251.32,6.76,232.2,3.56,211.65
			C-7.49,140.64,14.48,81.79,70.89,37.05C108.18,7.47,151.55-4.02,198.76,1.23c50.27,5.58,91.2,28.87,122.12,68.92
			c29.1,37.68,40.96,80.71,35.94,127.91c-4.66,43.86-23.64,81.03-55.83,111.29c-24.22,22.77-52.74,37.72-85.21,44.34
			C175,362,135.63,357.1,98.38,338.08c-4.79-2.45-8.11-4.46-8.11-4.46L0,358.08z M96.39,302.24
			c69.86,44.89,153.27,25.7,197.93-30.08c47.97-59.93,43.88-141.35-9.12-197.21C236.77,23.9,152.6,15.67,95.39,56.3
			c-31.74,22.54-52.71,52.51-61.01,90.57c-9.27,42.54-0.7,81.93,23.48,117.7c-4.77,17.06-9.44,33.74-14.33,51.23
			C61.85,311.1,79.05,306.69,96.39,302.24z"/>
		<path class="" d="M203.88,224.77c0.99-1.97,1.74-4.12,3.03-5.86c4.05-5.49,8.37-10.79,12.46-16.26
			c2.57-3.43,5.53-4.43,9.53-2.56c12.19,5.7,24.39,11.41,36.68,16.9c4.69,2.1,4.93,5.53,4.29,9.87
			c-4.73,31.77-33.17,41.87-56.68,35.81c-36.11-9.31-65.74-29.1-90.25-56.84c-12.84-14.53-24.53-29.89-30.57-48.68
			c-7.01-21.8-4.2-41.39,13.51-57.46c4.93-4.48,19.7-6.65,25.42-3.26c1.57,0.93,2.86,2.81,3.62,4.54
			c5.2,11.87,10.17,23.84,15.34,35.73c1.66,3.82,1.18,7-1.58,10.09c-4.11,4.59-8.04,9.34-12.13,13.95
			c-2.17,2.44-2.42,4.89-0.81,7.73c14.79,26.2,36.65,43.94,64.73,54.27c0.45,0.16,0.98,0.09,1.48,0.13
			C202.58,223.5,203.23,224.14,203.88,224.77z"/>
	</g>
</g>
</svg>
